<?xml version="1.0" standalone="no"?>
<!DOCTYPE svg PUBLIC "-//W3C//DTD SVG 20010904//EN"
 "http://www.w3.org/TR/2001/REC-SVG-20010904/DTD/svg10.dtd">
<svg version="1.0" xmlns="http://www.w3.org/2000/svg"
 width="691.000000pt" height="674.000000pt" viewBox="0 0 691.000000 674.000000"
 preserveAspectRatio="xMidYMid meet">

<g transform="translate(0.000000,674.000000) scale(0.100000,-0.100000)" style="width: 5vw;" class="coco"
fill="red" stroke="none">
<path d="M2680 6291 c-8 -5 -49 -13 -90 -19 -42 -5 -94 -17 -115 -27 -90 -40
-104 -45 -115 -45 -16 0 -55 -30 -173 -135 -55 -50 -108 -102 -116 -116 -9
-14 -28 -44 -43 -67 -16 -23 -28 -46 -28 -51 0 -5 -6 -13 -13 -19 -7 -6 -26
-51 -42 -99 -28 -86 -30 -90 -125 -183 -54 -53 -108 -115 -121 -139 -50 -90
-57 -101 -67 -113 -5 -7 -18 -40 -27 -73 -10 -33 -21 -69 -26 -80 -17 -44 -27
-93 -33 -160 l-6 -70 -70 -69 c-39 -38 -77 -81 -86 -97 -8 -16 -23 -33 -34
-39 -11 -6 -20 -15 -20 -21 0 -5 -11 -27 -25 -48 -13 -22 -27 -51 -31 -65 -3
-14 -12 -30 -20 -37 -8 -6 -14 -21 -14 -33 0 -12 -10 -49 -22 -81 -19 -53 -21
-80 -21 -227 l1 -167 -63 -56 c-76 -66 -153 -161 -187 -230 -13 -27 -36 -72
-50 -100 -68 -130 -77 -432 -18 -570 5 -11 19 -42 31 -70 17 -40 20 -60 15
-109 -6 -63 -49 -216 -69 -251 -7 -12 -13 -81 -15 -170 -4 -145 -3 -153 26
-240 62 -188 102 -252 243 -394 l76 -76 7 -75 c15 -164 43 -244 139 -397 31
-51 57 -97 57 -103 0 -5 5 -10 10 -10 6 0 34 -23 63 -51 29 -28 67 -57 85 -64
18 -8 35 -21 38 -30 3 -8 11 -15 18 -15 6 0 27 -10 46 -23 41 -27 159 -66 245
-82 59 -11 61 -12 97 -70 20 -33 37 -67 37 -75 1 -8 10 -21 21 -28 11 -7 20
-18 20 -25 0 -18 170 -180 223 -212 23 -14 49 -30 57 -35 8 -5 33 -16 55 -25
22 -9 49 -21 60 -27 34 -19 118 -38 167 -38 26 0 50 -5 53 -10 11 -18 207 3
290 32 37 12 59 21 107 42 20 9 39 16 42 16 17 0 169 115 228 173 61 59 74 67
107 67 34 0 45 -7 100 -66 33 -36 61 -72 61 -80 0 -8 10 -14 24 -14 13 0 35
-9 49 -20 34 -27 154 -90 172 -90 7 0 29 -8 47 -19 78 -44 359 -62 426 -27 17
9 43 16 57 16 14 0 46 11 73 25 26 13 63 31 82 40 42 18 130 81 148 107 7 10
19 18 25 18 7 0 34 27 60 60 27 33 53 60 58 60 5 0 9 4 9 10 0 5 12 26 26 47
14 21 30 47 35 58 31 67 45 80 97 87 63 9 202 55 223 74 8 8 21 14 28 14 16 0
63 31 79 52 7 10 21 18 30 18 16 0 142 114 142 128 0 3 13 20 29 37 35 36 111
172 111 199 0 11 6 27 14 35 18 21 56 190 56 250 0 49 16 74 68 100 12 6 22
18 22 26 0 8 10 21 22 29 31 22 94 104 121 156 12 25 30 56 40 70 9 13 17 34
17 45 0 12 4 25 9 31 15 16 39 115 51 205 8 67 7 106 -4 180 -15 94 -58 230
-83 260 -17 21 -17 137 0 158 19 24 54 118 71 191 28 124 29 178 7 292 -20
102 -63 232 -82 244 -5 3 -9 11 -9 19 0 7 -19 42 -42 76 -24 34 -50 72 -58 84
-8 13 -48 52 -88 87 l-73 63 7 116 c6 118 -1 179 -33 289 -8 30 -19 59 -24 65
-5 5 -9 17 -9 27 0 37 -106 207 -177 283 -16 17 -47 45 -71 63 l-42 34 0 76
c-1 45 -7 94 -16 117 -9 22 -18 54 -21 70 -4 26 -28 82 -82 193 -25 52 -119
158 -186 211 -56 46 -61 53 -84 127 -25 82 -81 193 -106 214 -8 7 -15 17 -15
22 0 14 -112 148 -124 148 -6 0 -22 11 -36 26 -32 32 -117 94 -130 94 -5 0
-25 9 -45 20 -20 11 -42 20 -49 20 -7 0 -19 6 -25 14 -11 14 -38 19 -151 32
-30 4 -61 11 -67 16 -24 19 -287 -21 -326 -49 -7 -5 -36 -17 -66 -27 -29 -11
-83 -39 -120 -62 -36 -24 -70 -44 -76 -45 -5 0 -41 -36 -79 -80 -88 -101 -105
-103 -181 -25 -78 79 -202 175 -255 196 -34 14 -58 24 -103 44 -82 35 -305 67
-337 47z m30 -318 c-78 -12 -291 -112 -345 -161 l-40 -37 40 43 c85 91 229
160 335 159 24 0 27 -1 10 -4z m188 -14 c13 -8 10 -9 -13 -4 -16 4 -52 11 -80
16 -48 8 -48 8 13 4 35 -3 71 -10 80 -16z m1455 -12 c121 -51 208 -125 271
-231 61 -101 62 -100 -116 -93 -84 3 -172 3 -195 0 -61 -8 -118 -60 -137 -124
-14 -47 -14 -54 4 -103 37 -98 89 -123 245 -120 117 3 155 -2 155 -22 0 -8 9
-14 20 -14 25 0 26 17 3 23 -14 4 -12 5 5 6 17 1 22 -4 22 -23 0 -18 -6 -26
-22 -28 -22 -3 -21 -4 7 -20 17 -10 24 -17 16 -18 -8 0 -12 -2 -9 -5 3 -3 42
-8 87 -12 l81 -5 1 28 2 29 4 -27 c2 -16 8 -28 13 -28 5 0 7 7 3 16 -5 12 0
15 23 14 50 -4 62 0 66 17 3 16 4 16 20 0 26 -26 41 -21 22 8 -9 14 -19 23
-23 21 -4 -3 -8 4 -8 15 -2 29 14 14 54 -48 49 -78 83 -180 83 -253 l0 -61
-123 -157 c-160 -205 -206 -302 -224 -464 l-6 -58 -96 -1 c-509 -5 -473 -3
-519 -29 -113 -64 -121 -224 -15 -295 l40 -25 281 -1 c155 0 289 -2 297 -5 12
-5 15 -27 15 -113 0 -122 12 -156 72 -204 67 -54 155 -47 227 17 13 11 21 15
17 9 -4 -7 -2 -13 4 -13 7 0 9 7 6 16 -3 8 0 25 7 37 9 16 13 116 17 357 l5
335 27 51 c38 71 156 219 176 219 23 0 96 -112 122 -188 27 -79 36 -195 20
-270 -10 -52 -14 -57 -33 -52 -20 5 -20 5 -4 -5 12 -8 16 -18 11 -32 -3 -11
-6 -42 -6 -70 1 -68 30 -108 117 -160 99 -59 174 -137 220 -231 21 -42 35 -80
32 -84 -4 -3 -10 3 -13 13 -22 62 -35 84 -48 84 -8 0 -16 5 -18 12 -3 7 -9 8
-18 3 -8 -5 -24 -9 -35 -10 -71 -4 -74 -5 -69 -20 4 -8 10 -12 15 -9 5 3 9
-13 9 -35 0 -32 4 -41 18 -41 25 -1 55 -27 47 -42 -3 -7 0 -5 8 5 15 18 15 18
20 0 4 -15 5 -14 6 4 0 12 7 24 14 26 6 3 -3 6 -20 6 -26 1 -33 5 -33 21 0 17
7 20 39 20 43 0 50 -6 57 -47 4 -22 3 -24 -10 -14 -11 9 -16 9 -21 0 -8 -12
11 -29 32 -29 7 0 12 -12 12 -27 0 -62 6 -112 15 -120 5 -4 6 32 4 87 -4 66
-3 87 4 70 12 -33 5 -227 -10 -262 l-12 -28 -361 0 -362 0 -44 -25 c-53 -31
-83 -86 -83 -150 0 -52 10 -77 49 -118 50 -55 67 -57 396 -57 341 0 308 8 364
-88 52 -88 71 -163 70 -271 0 -53 -5 -105 -10 -116 -6 -14 -7 -1 -4 40 4 42 3
56 -4 45 -8 -11 -10 -7 -6 18 2 23 0 32 -11 32 -8 0 -13 -4 -9 -9 3 -5 0 -13
-6 -17 -6 -3 -15 -1 -19 5 -4 7 -26 12 -49 13 -32 0 -41 4 -37 14 3 8 -2 14
-12 15 -11 1 -9 4 8 10 17 6 8 7 -30 3 -30 -3 -59 -9 -65 -13 -5 -4 -21 -8
-34 -9 -21 -1 -23 2 -18 33 4 25 1 35 -11 41 -42 17 -80 8 -56 -14 9 -8 14 -9
14 -2 0 7 6 8 19 1 10 -6 22 -7 26 -3 5 4 5 2 1 -5 -10 -18 -58 -8 -78 17 -16
20 -23 19 -19 -2 2 -13 -4 -9 -27 16 l-21 25 35 -5 c28 -3 33 -1 27 10 -12 21
-69 66 -77 61 -3 -3 -2 0 3 7 10 11 -6 34 -51 76 -10 9 -18 24 -18 34 0 10 -7
18 -15 18 -21 0 -36 -41 -21 -59 6 -8 12 -31 12 -53 2 -38 1 -38 -37 -38 -22
0 -39 -4 -39 -10 0 -5 7 -10 15 -10 8 0 15 -4 15 -9 0 -5 -9 -7 -20 -4 -15 4
-19 2 -14 -10 6 -18 42 -29 50 -16 3 5 13 8 22 8 15 -1 15 -2 0 -6 -10 -2 -18
-9 -18 -15 0 -6 3 -8 7 -5 3 4 12 2 19 -3 18 -16 54 -20 54 -7 0 8 3 8 12 -1
8 -8 8 -15 -2 -27 -15 -18 -13 -20 20 -34 20 -8 21 -10 6 -10 -12 -1 -16 -6
-12 -16 4 -10 -1 -15 -14 -15 -11 0 -20 6 -20 14 0 9 -10 12 -36 9 -21 -2 -33
0 -30 6 4 5 -6 11 -21 13 -23 2 -29 9 -31 33 -3 24 -42 75 -58 75 -2 0 -4 -24
-4 -54 0 -54 0 -54 35 -60 19 -4 35 -10 35 -15 0 -4 21 -9 46 -9 25 -1 52 -9
60 -16 7 -8 27 -17 43 -21 39 -8 119 -48 151 -75 16 -13 1 -8 -40 13 -71 37
-177 72 -252 82 -27 4 -48 12 -48 17 0 5 5 6 12 2 7 -4 8 -3 4 5 -5 8 -12 9
-19 3 -7 -6 -63 -13 -124 -17 -112 -7 -113 -7 -113 15 0 21 -1 22 -25 6 -26
-17 -80 -22 -71 -7 8 12 -18 21 -57 21 -58 0 -74 9 -75 41 0 20 4 29 15 29 8
0 17 9 20 20 7 25 30 26 36 3 4 -14 5 -12 6 5 1 16 -5 22 -19 22 -11 0 -20 5
-20 11 0 8 -5 8 -15 -1 -12 -10 -15 -10 -15 4 0 13 11 16 59 16 54 0 59 -2 54
-20 -4 -16 0 -20 18 -21 l24 -2 -23 -4 c-19 -4 -23 -9 -18 -26 3 -12 6 -34 6
-49 0 -26 3 -28 45 -28 29 0 45 4 45 13 0 7 3 8 8 2 4 -5 13 -11 20 -13 10 -2
10 2 3 17 -6 10 -7 21 -4 25 3 3 1 6 -6 6 -15 0 -61 45 -61 60 0 16 99 2 118
-16 19 -19 32 -17 32 4 0 26 30 23 31 -2 1 -19 2 -19 6 -2 3 12 -3 25 -17 36
-16 12 -21 23 -15 38 9 31 22 27 30 -8 4 -17 10 -30 15 -30 5 0 15 -3 23 -6
12 -4 14 0 10 15 -3 11 -14 23 -24 26 -37 12 -18 25 35 25 34 0 56 -5 59 -12
3 -8 6 -6 6 5 1 9 -7 18 -16 19 -33 3 -98 7 -120 8 -30 0 -30 17 0 23 l22 4
-22 8 c-24 8 -32 44 -10 46 10 0 10 2 0 6 -7 2 -13 13 -13 23 0 10 -5 22 -12
26 -7 4 -8 3 -4 -4 4 -7 1 -12 -8 -12 -10 0 -16 9 -16 24 0 14 -4 28 -10 31
-6 4 -7 -6 -4 -25 5 -24 3 -30 -11 -30 -10 0 -15 -3 -12 -7 4 -3 20 -6 37 -5
18 0 30 -4 30 -12 0 -9 -15 -14 -45 -14 -41 -1 -45 1 -45 23 0 35 -26 55 -70
55 -32 0 -39 4 -43 23 -5 19 -5 19 -4 -3 2 -19 8 -26 30 -28 17 -2 27 -9 27
-20 0 -15 2 -15 10 -2 8 13 10 12 10 -4 0 -15 -5 -18 -32 -13 -18 3 -27 3 -20
0 6 -2 12 -12 12 -21 0 -15 -2 -15 -10 -2 -7 11 -10 7 -10 -17 0 -18 5 -33 10
-33 6 0 10 -7 10 -15 0 -8 -7 -15 -15 -15 -8 0 -15 -4 -15 -10 0 -5 6 -10 13
-10 7 0 13 -8 14 -17 1 -14 -6 -18 -33 -18 -23 0 -34 5 -35 15 0 10 -2 11 -6
3 -2 -7 -18 -13 -35 -13 -23 0 -29 4 -26 18 2 12 12 17 36 15 17 -1 32 3 32 8
0 14 -33 24 -37 12 -3 -8 -13 -9 -34 -1 -21 7 -33 7 -43 -1 -17 -14 -31 2 -22
24 3 8 -6 17 -25 24 -17 6 -28 15 -24 21 5 9 -33 15 -51 8 -4 -2 -10 7 -15 19
-5 15 -14 21 -24 17 -12 -5 -15 2 -17 32 l-1 39 -4 -35 c-3 -19 -10 -38 -16
-42 -7 -5 -3 -8 11 -8 25 0 112 -80 112 -103 0 -6 -14 5 -31 26 -17 21 -44 44
-59 52 -37 19 -123 19 -159 0 -41 -21 -79 -70 -87 -111 -4 -20 -9 -32 -13 -27
-3 4 -12 8 -20 8 -7 0 -17 10 -22 23 -5 13 -5 22 1 22 6 0 10 5 10 10 0 6 -7
10 -15 10 -8 0 -15 -4 -15 -9 0 -13 -82 -20 -104 -8 -14 7 -17 6 -14 -5 3 -7
20 -15 39 -18 24 -4 35 -11 37 -25 5 -24 22 -46 32 -40 4 2 17 -7 28 -20 27
-31 42 -32 43 -2 0 12 9 -18 19 -66 11 -51 31 -111 49 -142 34 -60 37 -70 19
-59 -8 4 -10 3 -5 -2 5 -5 12 -9 17 -9 15 0 119 -109 113 -118 -3 -6 -1 -7 6
-3 6 4 23 -1 39 -12 91 -65 189 -82 472 -82 230 0 274 -7 346 -53 22 -13 54
-39 72 -58 36 -37 78 -109 63 -109 -5 0 -11 10 -15 23 -8 35 -98 120 -109 105
-6 -9 -7 -8 -4 3 6 18 -37 44 -54 34 -5 -4 -9 1 -9 10 0 10 -6 15 -13 12 -7
-3 -20 0 -28 7 -13 9 -166 13 -241 7 -4 -1 -5 -8 -2 -16 5 -11 -1 -15 -18 -15
-13 0 -28 4 -34 9 -5 5 -36 12 -69 15 -87 9 -147 17 -169 23 -13 4 -16 1 -11
-7 4 -7 -4 -4 -19 5 -14 9 -42 17 -62 17 -20 0 -44 7 -53 17 -10 9 -27 22 -39
28 -18 11 -20 10 -16 -2 4 -8 10 -15 15 -15 5 0 9 -5 9 -11 0 -5 -4 -7 -10 -4
-5 3 -10 1 -10 -5 0 -6 -5 -8 -10 -5 -6 4 -10 12 -9 18 5 40 -12 57 -60 61
-20 2 -26 26 -7 26 11 0 3 13 -23 40 -21 22 -41 40 -44 40 -3 0 -7 -10 -9 -23
-4 -26 -48 -38 -48 -13 0 12 -11 16 -46 16 -29 0 -43 -4 -39 -10 4 -6 22 -9
41 -6 26 5 34 2 34 -9 0 -9 -9 -15 -21 -15 -12 0 -27 -7 -34 -16 -7 -10 -29
-18 -51 -19 -32 -2 -38 -6 -36 -21 2 -16 1 -17 -7 -4 -6 8 -11 11 -11 7 0 -5
-9 -2 -21 6 -11 8 -29 13 -40 10 -10 -3 -19 -1 -19 5 0 6 10 13 23 15 l22 4
-22 8 c-17 5 -23 16 -25 49 -2 28 -8 41 -18 41 -10 0 -17 14 -21 40 l-6 40 -1
-43 c-2 -40 -4 -43 -27 -40 -14 2 -25 7 -25 13 2 14 -41 28 -77 26 -26 -2 -32
2 -36 21 l-4 23 -2 -23 c-1 -16 6 -26 19 -29 11 -3 17 -10 13 -17 -4 -6 1 -5
10 3 18 14 20 12 11 -13 -3 -8 -11 -13 -18 -10 -8 3 -13 -9 -14 -36 -2 -22 2
-40 8 -40 19 0 10 -29 -11 -35 -29 -9 -53 -69 -39 -95 15 -28 22 -25 20 8 -3
40 -1 45 13 35 6 -5 29 -9 50 -7 27 2 40 -2 44 -12 4 -11 8 -12 13 -4 4 6 20
13 36 14 16 2 28 9 27 15 -2 6 4 11 12 11 8 0 14 -5 12 -12 -1 -7 3 -12 10
-13 6 0 15 -3 19 -7 4 -4 13 -3 20 3 10 8 16 5 25 -9 12 -19 14 -19 25 -4 11
15 13 14 28 -1 19 -18 31 -23 22 -8 -4 5 7 12 24 16 23 5 30 12 30 31 0 16 4
23 11 18 6 -3 9 -15 6 -25 -5 -17 1 -19 43 -19 43 0 48 -2 43 -19 -4 -14 1
-21 19 -24 19 -3 18 -5 -8 -6 -16 0 -35 -6 -42 -13 -9 -9 -12 -7 -12 10 0 15
-6 22 -20 22 -11 0 -20 6 -20 13 0 8 -4 7 -10 -3 -5 -8 -10 -10 -10 -3 0 6 -7
10 -15 9 -20 -3 -19 -16 1 -39 8 -11 13 -21 11 -23 -7 -8 -57 15 -57 26 0 20
-19 10 -22 -13 -2 -15 -9 -21 -21 -19 -12 2 -21 -4 -24 -17 -4 -15 -14 -21
-37 -22 -17 -1 -55 -3 -84 -4 -45 -2 -50 -1 -35 11 15 11 15 14 3 15 -8 1 -21
1 -28 0 -7 -1 -12 2 -11 6 4 25 -3 34 -28 31 -23 -2 -29 1 -31 21 -2 14 0 21
6 17 6 -4 13 -2 16 3 4 5 3 12 -2 15 -34 21 -50 -96 -16 -121 17 -12 16 -13
-7 -15 -13 0 -29 -1 -36 -1 -6 0 -14 -8 -16 -18 -3 -12 0 -19 8 -19 8 0 15
-10 17 -22 3 -26 38 -38 38 -15 0 9 -6 17 -12 19 -9 3 -8 9 5 22 16 17 17 16
17 -14 0 -30 2 -32 28 -26 15 4 51 10 79 13 29 3 50 9 48 13 -3 5 11 3 31 -3
29 -9 37 -8 45 4 5 8 9 9 9 3 0 -8 25 -12 74 -11 63 1 75 4 79 19 3 12 11 16
21 12 9 -3 16 -1 16 5 0 7 5 18 12 25 10 11 15 11 26 -1 15 -15 122 -16 122
-1 0 4 5 8 10 8 6 0 10 -6 10 -14 0 -8 7 -17 16 -20 8 -3 13 -2 9 3 -8 14 5
41 21 41 8 0 14 -8 14 -18 0 -15 10 -17 63 -18 l62 0 0 -47 c0 -38 3 -47 18
-47 9 0 17 7 17 15 0 8 -4 15 -10 15 -5 0 -10 5 -10 11 0 8 12 10 34 6 18 -3
38 -2 42 3 5 5 18 2 28 -6 19 -13 17 -14 -16 -14 -36 0 -36 0 -25 -29 6 -17
15 -27 19 -25 5 3 6 9 3 14 -3 4 7 11 22 15 17 4 29 2 31 -5 2 -6 15 2 28 17
13 15 24 22 24 16 0 -7 4 -13 10 -13 5 0 9 3 7 7 -1 5 3 9 8 10 6 1 8 -6 7
-15 -3 -13 -1 -14 12 -3 9 8 16 11 16 8 0 -3 3 -12 6 -20 4 -11 -4 -17 -25
-22 -40 -9 -49 -25 -20 -32 23 -6 23 -7 -6 -20 l-30 -14 40 4 c22 2 50 0 63
-4 18 -7 24 -5 32 14 9 22 9 22 11 -3 1 -20 2 -21 6 -6 4 15 7 16 14 5 9 -15
10 -15 82 -17 43 -2 47 -4 47 -27 0 -14 6 -25 13 -25 8 0 8 -3 -2 -9 -12 -8
-11 -13 10 -30 20 -17 21 -20 7 -21 -10 0 -18 5 -18 10 0 7 -8 6 -22 -2 -22
-12 -22 -12 12 -19 26 -6 37 -3 46 9 7 9 11 19 9 22 -2 3 19 5 46 5 34 0 49
-4 49 -13 0 -8 -9 -16 -20 -19 -16 -4 -18 -8 -9 -19 9 -11 8 -15 -4 -20 -9 -3
-26 -22 -38 -42 -12 -21 -24 -32 -26 -24 -7 18 -43 15 -43 -4 0 -10 6 -14 15
-10 9 3 15 0 15 -9 0 -8 8 -16 18 -16 9 -1 22 -2 27 -4 6 -1 20 -3 33 -3 15
-2 22 -8 22 -23 0 -11 4 -18 10 -14 19 11 50 -18 44 -42 -8 -30 16 -31 42 -2
19 21 19 22 -3 15 -15 -5 -23 -3 -23 4 0 8 10 10 24 8 21 -4 28 2 52 49 30 60
44 65 20 8 -26 -61 -104 -163 -157 -205 -47 -37 -165 -100 -187 -100 -5 0 -12
12 -15 28 -36 200 -57 283 -79 320 -41 68 -157 94 -227 51 -25 -15 -36 -17
-41 -9 -5 8 -10 9 -14 2 -3 -6 -1 -12 6 -14 7 -3 3 -16 -13 -37 -29 -40 -31
-117 -6 -226 25 -109 47 -229 47 -259 0 -45 -64 -167 -119 -227 -58 -65 -134
-118 -212 -149 -67 -27 -269 -41 -269 -20 0 8 56 70 124 140 133 135 145 158
133 236 -16 100 -157 177 -240 132 -12 -7 -94 -84 -183 -171 l-161 -159 -20
29 c-79 111 -103 207 -103 407 l0 156 72 36 c108 55 172 72 270 73 83 1 87 0
90 -21 2 -15 9 -22 21 -22 9 1 17 -2 17 -7 0 -5 5 -9 10 -9 6 0 10 11 10 24 0
20 6 24 40 29 56 7 109 37 144 81 27 33 31 46 31 100 0 53 -5 69 -28 100 -52
67 -68 71 -287 70 -170 -1 -224 -6 -295 -28 -5 -2 -23 -8 -38 -14 -60 -25 -56
-65 -57 583 l0 594 42 19 c119 52 249 81 408 91 175 11 212 32 255 139 10 23
21 42 26 42 5 0 4 -8 -2 -19 -8 -11 -9 -26 -4 -37 5 -11 9 -23 9 -29 1 -11 32
-12 56 -1 10 4 19 -1 25 -16 11 -23 27 -28 64 -19 23 6 23 7 6 25 -10 9 -26
15 -36 13 -11 -3 -22 -1 -25 4 -3 5 -14 9 -25 9 -10 0 -19 6 -20 13 0 6 -4 4
-7 -6 -7 -16 -8 -16 -24 2 -14 16 -14 22 -4 37 13 17 41 11 31 -7 -4 -5 -2 -9
4 -9 15 0 19 23 9 44 -9 17 -7 18 18 12 16 -4 42 -16 57 -27 23 -17 31 -18 44
-8 12 11 17 10 24 -4 8 -14 13 -14 24 -4 11 10 11 15 -2 30 -9 9 -21 17 -28
17 -6 0 -21 9 -33 20 -12 11 -24 20 -27 20 -3 0 -13 4 -23 10 -16 11 -16 11 0
6 10 -3 20 -1 23 4 4 6 -5 10 -19 10 -15 0 -26 -6 -26 -13 0 -14 -37 -17 -57
-4 -7 4 -16 1 -21 -9 -8 -13 -12 -14 -29 -3 -12 7 -28 26 -38 42 -11 18 -39
39 -72 54 l-55 26 -122 -14 c-66 -7 -138 -13 -158 -13 -21 0 -38 -4 -38 -8 0
-4 -9 -8 -21 -8 -11 0 -60 -11 -109 -25 -49 -14 -91 -25 -94 -25 -4 0 -6 10
-6 21 0 18 3 19 15 9 11 -9 22 -9 52 1 21 7 40 14 43 14 3 1 13 5 23 10 10 4
20 5 23 2 3 -3 20 0 37 5 18 6 66 14 107 17 67 5 76 9 87 31 12 24 13 25 13 3
0 -13 5 -23 10 -23 6 0 10 3 10 8 0 12 164 8 175 -4 17 -19 45 -25 45 -9 0 24
18 17 23 -7 l4 -23 8 22 c4 13 12 20 17 17 5 -3 7 -12 4 -19 -7 -20 9 -22 129
-21 76 1 109 5 108 12 -1 7 7 20 17 29 11 10 20 13 20 7 0 -6 -6 -13 -12 -15
-7 -3 -3 -6 9 -6 16 -1 20 4 16 18 -5 21 -41 31 -109 31 -24 0 -44 4 -44 8 0
5 -13 7 -29 4 -17 -2 -40 3 -56 14 -22 15 -47 18 -131 17 -133 -2 -182 -10
-187 -31 -2 -10 -9 3 -16 28 -13 44 -25 60 -48 60 -17 0 -4 -38 16 -43 11 -3
9 -5 -6 -6 -13 0 -23 4 -23 9 0 6 -6 9 -12 8 -7 -2 -14 9 -16 23 -3 26 -3 27
72 28 42 1 76 -3 76 -8 0 -5 -8 -7 -19 -4 -14 3 -20 -2 -23 -21 -5 -24 -2 -26
28 -26 19 0 34 5 34 10 0 6 10 10 23 11 l22 0 -22 9 c-13 5 -23 16 -23 24 0
18 -28 26 -85 25 -70 -1 -85 1 -85 10 0 5 10 12 23 14 l22 4 -22 8 c-11 4 -23
16 -26 27 -5 16 -13 19 -48 17 -42 -3 -43 -2 -50 30 -8 41 -22 51 -71 51 -28
0 -38 4 -41 20 -4 17 -4 16 -3 -2 1 -17 8 -24 29 -26 17 -2 27 -9 27 -20 0
-15 2 -15 10 -2 8 13 10 12 10 -4 0 -15 -5 -18 -32 -13 -18 3 -27 3 -20 0 6
-2 12 -12 12 -21 0 -15 -2 -15 -10 -2 -7 11 -10 7 -10 -17 0 -17 5 -33 11 -35
8 -3 8 -10 -2 -26 -16 -25 -34 -30 -25 -7 3 8 2 15 -2 15 -4 0 -8 8 -9 19 -1
10 -14 31 -28 47 -15 16 -31 38 -36 49 -5 14 -8 3 -8 -37 -1 -32 -5 -58 -10
-58 -5 0 -9 41 -9 90 1 69 4 90 14 90 8 0 14 5 14 11 0 6 -7 9 -15 6 -12 -5
-14 43 -13 356 1 199 3 328 5 286 3 -66 7 -78 23 -82 13 -3 20 0 20 8 0 9 8
12 21 10 12 -3 27 -1 33 3 6 3 17 7 25 9 8 1 18 8 22 15 7 10 9 10 9 1 0 -7 5
-13 11 -13 5 0 7 5 4 10 -4 6 9 10 31 10 21 0 34 3 31 7 -4 3 -1 13 6 21 10
13 9 15 -5 9 -10 -3 -18 -3 -18 2 0 5 -21 14 -47 22 -45 12 -133 56 -133 65 0
2 21 -6 48 -19 117 -59 136 -62 427 -62 267 0 271 0 300 23 49 39 69 81 69
144 -1 46 -6 64 -28 93 -52 68 -57 69 -296 76 -118 3 -235 11 -260 18 -62 17
-109 49 -212 149 l-88 85 0 174 c0 127 4 192 16 236 51 197 205 348 409 401
11 3 70 3 130 1 90 -2 121 -8 168 -28z m-1388 -11 c19 -8 35 -17 35 -20 0 -5
-71 22 -79 30 -9 8 11 4 44 -10z m148 -105 c34 -32 72 -77 85 -100 32 -56 22
-52 -16 7 -30 47 -84 102 -147 150 -19 15 -22 19 -7 12 12 -6 50 -37 85 -69z
m-801 -88 c-46 -66 -46 -70 -2 -93 55 -28 51 -35 -5 -8 -25 12 -45 25 -45 28
0 10 59 100 65 100 4 0 -2 -12 -13 -27z m947 -153 c0 -8 -7 1 -14 20 -18 46
-17 64 0 25 8 -16 14 -37 14 -45z m-859 15 c33 -17 40 -28 13 -18 -23 8 -60
33 -50 33 5 0 21 -7 37 -15z m80 -40 c17 -9 30 -18 30 -20 0 -6 -52 16 -64 27
-16 13 3 9 34 -7z m799 -402 c1 -302 -1 -363 -13 -363 -7 0 -20 7 -27 17 -13
15 -12 15 9 4 l22 -12 0 306 0 305 -67 0 c-38 0 -175 2 -305 5 l-238 5 -2 -62
c-1 -51 -2 -55 -5 -18 -5 71 -11 87 -46 127 -17 21 -25 33 -17 27 10 -7 125
-12 348 -13 l334 -2 -6 43 c-4 31 -3 36 3 18 5 -14 9 -188 10 -387z m-723 362
c18 -13 18 -14 -4 -8 -12 3 -25 9 -28 14 -8 14 10 11 32 -6z m-366 -220 c0 -3
-22 6 -49 19 -27 14 -52 22 -56 18 -5 -4 -5 -1 -1 5 5 10 19 7 57 -12 27 -14
49 -28 49 -30z m-120 32 c0 -1 -26 -27 -57 -57 l-58 -55 55 58 c50 53 60 62
60 54z m960 -46 c0 -11 -4 -22 -9 -25 -5 -3 -12 -18 -16 -33 -3 -16 -18 -43
-32 -62 -50 -66 -39 -161 18 -161 24 0 89 68 89 93 0 24 -15 21 -44 -10 l-25
-27 -12 27 c-18 39 10 68 63 65 49 -3 73 -27 63 -65 -9 -37 -81 -101 -121
-109 -38 -7 -81 17 -95 54 -10 25 -11 24 -74 -44 -101 -108 -80 -54 28 75 16
19 38 52 48 75 11 23 26 52 33 66 8 14 21 42 30 63 17 41 56 53 56 18z m-790
-6 c17 -9 30 -18 30 -20 0 -6 -52 16 -64 27 -16 13 3 9 34 -7z m401 -13 c-13
-24 -78 -82 -93 -82 -6 0 4 10 23 23 19 12 43 37 54 54 22 33 33 37 16 5z
m2247 -8 c-7 -7 -229 -6 -236 1 -3 3 50 5 118 5 68 0 121 -3 118 -6z m-2572
-20 c18 -14 18 -14 -6 -3 -31 14 -36 19 -24 19 6 0 19 -7 30 -16z m67 -31 c18
-10 59 -20 92 -24 l60 -6 -55 -1 c-40 -1 -67 5 -100 23 -25 13 -41 24 -37 25
4 0 22 -8 40 -17z m-433 -13 c-6 -11 -13 -20 -16 -20 -2 0 0 9 6 20 6 11 13
20 16 20 2 0 0 -9 -6 -20z m2800 -11 c0 -5 -7 -9 -15 -9 -9 0 -12 6 -9 15 6
15 24 11 24 -6z m-2835 -55 c-8 -20 -15 -39 -15 -42 0 -3 -3 -3 -6 0 -6 7 22
78 31 78 3 0 -2 -16 -10 -36z m687 -44 c28 -21 98 -133 98 -156 0 -11 27 -14
143 -16 l142 -2 -157 -5 c-149 -6 -158 -7 -184 -31 -43 -38 -53 -52 -65 -93
-7 -20 -14 -35 -16 -33 -3 2 1 22 8 44 10 36 9 45 -9 81 -18 34 -19 41 -6 41
8 0 25 -11 38 -23 22 -22 25 -23 45 -8 19 15 19 19 8 51 -7 19 -29 60 -50 90
-51 76 -49 103 5 60z m-718 -35 c-3 -14 -10 -49 -14 -78 -7 -49 -8 -50 -9 -12
0 22 4 57 10 78 11 41 23 52 13 12z m1139 -152 c-7 -2 -19 -2 -25 0 -7 3 -2 5
12 5 14 0 19 -2 13 -5z m142 -44 c66 -32 58 -32 -25 2 -96 38 -98 39 -65 33
17 -3 57 -19 90 -35z m-1286 -9 c11 -24 11 -24 -3 -6 -9 11 -16 24 -16 30 0
12 5 7 19 -24z m336 19 c4 -5 -2 -32 -14 -58 -23 -55 -19 -110 10 -137 24 -21
24 -34 2 -34 -28 1 -50 23 -66 66 -19 49 -19 70 0 114 26 58 51 77 68 49z
m-268 -89 c14 0 26 -7 29 -17 13 -43 38 -82 60 -93 24 -13 33 -40 13 -40 -6 0
-20 5 -31 11 -22 12 -21 9 12 -41 27 -40 84 -146 73 -135 -10 10 -155 252
-195 325 -13 25 -14 28 -2 13 9 -13 27 -23 41 -23z m398 22 c6 -4 18 -24 27
-44 19 -41 29 -46 48 -23 13 16 40 20 40 6 0 -4 -10 -21 -22 -36 -17 -22 -19
-31 -10 -46 20 -32 14 -43 -14 -24 -16 10 -35 14 -50 11 -17 -5 -24 -2 -24 8
0 8 4 17 9 20 5 4 -2 27 -15 52 -34 64 -28 105 11 76z m288 -196 c24 -16 24
-17 8 -65 -9 -27 -26 -62 -39 -78 -26 -32 -27 -37 6 79 15 54 15 59 0 74 -15
16 -19 15 -48 -10 -56 -47 -69 -25 -20 34 17 19 30 41 30 50 0 8 9 -4 19 -27
11 -23 30 -49 44 -57z m1023 62 c4 -6 3 -8 -4 -4 -6 3 -13 -2 -15 -11 -4 -14
-5 -13 -6 5 -1 23 13 30 25 10z m-731 -109 c13 -5 -24 -7 -104 -4 -68 2 -126
6 -129 9 -9 10 212 5 233 -5z m-1220 -115 c84 -138 117 -194 112 -194 -3 0
-42 62 -87 138 -45 75 -90 143 -99 151 -13 11 -13 12 -1 9 8 -3 42 -49 75
-104z m1361 65 c27 -18 86 -68 132 -112 l82 -81 -2 -360 -3 -361 -2 358 -3
359 -88 85 c-48 47 -109 98 -137 114 -27 16 -45 29 -39 29 5 0 32 -14 60 -31z
m-1476 -28 c-17 -27 -35 -63 -41 -80 -6 -18 -13 -30 -16 -27 -10 10 67 156 83
156 2 0 -10 -22 -26 -49z m540 -51 c6 -11 8 -20 6 -20 -3 0 -10 9 -16 20 -6
11 -8 20 -6 20 3 0 10 -9 16 -20z m55 -95 c16 -27 24 -45 18 -40 -6 6 -23 33
-38 60 -16 28 -24 46 -18 40 6 -5 23 -32 38 -60z m-666 -41 c-11 -60 -9 -168
4 -181 4 -3 38 15 76 40 37 26 71 47 74 47 22 0 -2 -24 -64 -65 -38 -25 -74
-56 -78 -68 -7 -18 -10 -13 -20 31 -14 67 -14 146 0 212 15 70 22 57 8 -16z
m1227 -47 c-3 -17 -17 -53 -30 -81 -13 -28 -27 -68 -30 -88 l-7 -37 32 16 c53
26 156 3 142 -33 -3 -8 8 -29 25 -48 58 -66 65 -151 20 -224 -20 -33 -72 -72
-93 -72 -5 1 6 10 27 20 116 62 111 256 -9 307 -19 7 -31 18 -28 23 3 6 -3 10
-15 10 -12 0 -19 -3 -17 -7 3 -5 -59 -6 -136 -3 -78 2 -120 6 -93 8 58 4 89
31 112 95 22 62 57 131 74 144 22 17 33 5 26 -30z m-482 -42 c29 -55 5 -26
-33 39 -13 23 -17 34 -9 26 8 -8 27 -37 42 -65z m-419 5 c9 -16 13 -30 11 -30
-3 0 -12 14 -21 30 -9 17 -13 30 -11 30 3 0 12 -13 21 -30z m1243 -30 c31 -16
74 -36 95 -44 20 -8 37 -19 37 -25 0 -13 -75 -64 -120 -81 -19 -7 -43 -20 -52
-27 -9 -8 -35 -17 -57 -20 -33 -5 -41 -3 -41 10 0 16 47 47 71 47 19 0 129 52
129 61 0 5 -27 22 -61 39 -66 32 -89 48 -89 61 0 16 30 9 88 -21z m-1150 -127
c39 -66 93 -140 121 -168 28 -27 51 -54 51 -60 0 -5 -50 -59 -111 -119 -107
-106 -139 -153 -139 -203 0 -22 -1 -23 -16 -9 -14 15 -14 18 5 42 12 15 21 33
21 40 0 7 51 65 113 129 61 65 112 120 112 125 0 4 -28 37 -62 74 -45 47 -69
66 -87 66 -37 0 -59 38 -45 78 9 27 7 37 -16 76 -15 25 -25 46 -22 46 2 0 36
-53 75 -117z m377 77 c10 -11 16 -20 13 -20 -3 0 -13 9 -23 20 -10 11 -16 20
-13 20 3 0 13 -9 23 -20z m75 -57 c0 -7 -39 17 -46 28 -3 6 5 3 20 -6 14 -10
26 -19 26 -22z m80 -31 c3 -3 -8 -2 -25 2 -16 4 -34 12 -40 17 -5 5 6 4 25 -2
19 -7 37 -14 40 -17z m-752 -48 c34 -16 37 -21 22 -44 -7 -12 -19 -10 -75 13
-78 32 -119 36 -111 10 3 -10 2 -31 -3 -48 -8 -26 -9 -23 -10 27 -1 31 -4 63
-7 71 -5 13 4 13 73 0 43 -7 93 -21 111 -29z m-198 -145 c-7 -11 -14 -18 -17
-15 -3 3 0 12 7 21 18 21 23 19 10 -6z m-31 -33 c-12 -10 -103 -58 -97 -51 12
12 82 54 92 55 5 0 7 -2 5 -4z m-124 -76 c-10 -11 -21 -18 -23 -15 -3 3 3 12
14 20 27 20 30 18 9 -5z m2573 -2 c-6 -18 -28 -21 -28 -4 0 9 7 16 16 16 9 0
14 -5 12 -12z m-2608 -21 c0 -2 -15 -16 -32 -33 l-33 -29 29 33 c28 30 36 37
36 29z m2540 -29 c0 -14 5 -18 15 -15 8 4 17 2 20 -3 10 -16 28 -11 22 5 -4 8
-2 17 3 20 6 4 10 -7 10 -24 0 -21 -5 -31 -15 -31 -8 0 -15 -4 -15 -10 0 -5 7
-10 16 -10 9 0 14 -6 12 -12 -7 -21 -33 -15 -36 8 -2 12 -13 27 -25 33 -15 8
-24 23 -25 42 -2 19 2 28 8 24 5 -3 10 -15 10 -27z m-1494 -107 c-87 -86 -98
-101 -87 -115 8 -9 26 -16 42 -16 37 0 38 -16 2 -23 -19 -4 -37 0 -54 13 l-26
19 -54 -56 c-53 -54 -96 -83 -121 -83 -7 0 5 9 27 19 24 11 104 83 200 180 88
89 162 161 166 161 3 0 -39 -45 -95 -99z m342 92 c-43 -2 -113 -2 -155 0 -43
1 -8 3 77 3 85 0 120 -2 78 -3z m919 -30 c-3 -10 -5 -4 -5 12 0 17 2 24 5 18
2 -7 2 -21 0 -30z m-2367 3 c0 -2 -8 -10 -17 -17 -16 -13 -17 -12 -4 4 13 16
21 21 21 13z m423 -102 c16 -167 9 -212 -43 -259 -15 -13 -40 -20 -86 -23 -64
-4 -66 -4 -62 19 3 23 6 24 65 21 58 -4 62 -2 80 24 20 31 24 146 6 178 -8 15
-11 15 -32 -3 -12 -11 -37 -23 -54 -27 -25 -5 -34 -2 -49 16 -18 22 -24 73
-12 104 11 30 24 16 22 -24 -1 -41 15 -70 39 -70 22 0 83 70 83 95 0 12 3 25
7 29 18 17 29 -7 36 -80z m991 -8 c-6 -64 -10 -76 -25 -76 -27 0 -29 10 -13
80 20 89 23 95 35 83 6 -6 8 -38 3 -87z m-1462 41 c-10 -19 -25 -50 -32 -71
-6 -21 -14 -36 -16 -33 -10 9 49 137 63 137 3 0 -4 -15 -15 -33z m2421 8 c-7
-21 -13 -19 -13 6 0 11 4 18 10 14 5 -3 7 -12 3 -20z m-781 -15 c36 22 53 26
43 9 -4 -6 2 -5 14 3 16 9 26 10 39 2 13 -9 18 -28 20 -89 3 -67 5 -78 23 -82
11 -3 18 -11 16 -17 -7 -22 -38 -17 -67 12 -27 28 -29 35 -25 86 2 33 0 56 -6
56 -22 0 -63 -36 -75 -67 -12 -27 -20 -33 -46 -33 l-31 0 6 59 c7 77 15 91 38
62 l18 -22 33 21z m418 -39 c0 -53 -2 -59 -23 -65 -29 -7 -67 3 -67 18 0 6 9
31 21 55 15 34 22 42 31 33 16 -16 28 -15 28 3 0 8 2 15 5 15 3 0 5 -27 5 -59z
m435 49 c3 -5 1 -10 -4 -10 -6 0 -11 5 -11 10 0 6 2 10 4 10 3 0 8 -4 11 -10z
m-1161 -27 c4 -15 2 -77 -3 -106 -2 -11 -66 -37 -91 -37 -15 0 -20 5 -18 18 2
10 11 16 23 15 26 -4 49 12 41 26 -4 6 -18 11 -30 11 -32 0 -71 33 -63 53 7
18 55 35 104 36 22 1 33 -4 37 -16z m1596 -3 c0 -5 -4 -10 -10 -10 -5 0 -10 5
-10 10 0 6 5 10 10 10 6 0 10 -4 10 -10z m115 0 c-3 -5 -18 -9 -33 -9 l-27 1
30 8 c17 4 31 8 33 9 2 0 0 -3 -3 -9z m1405 1 c0 -11 -49 -21 -55 -10 -3 4 7
10 22 12 16 2 29 5 31 6 1 0 2 -3 2 -8z m-2033 -48 c-3 -10 -5 -2 -5 17 0 19
2 27 5 18 2 -10 2 -26 0 -35z m473 37 c0 -5 -7 -7 -15 -4 -8 4 -15 8 -15 10 0
2 7 4 15 4 8 0 15 -4 15 -10z m-180 -22 c0 -10 -41 -10 -57 0 -8 5 1 8 22 8
19 0 35 -4 35 -8z m35 2 c-3 -5 -11 -10 -16 -10 -6 0 -7 5 -4 10 3 6 11 10 16
10 6 0 7 -4 4 -10z m425 -37 c0 -13 -3 -13 -15 -3 -8 7 -15 9 -15 6 0 -4 -5
-4 -10 -1 -17 10 -2 24 20 18 11 -3 20 -12 20 -20z m-683 11 c-3 -3 -12 -4
-19 -1 -8 3 -5 6 6 6 11 1 17 -2 13 -5z m136 -1 c-7 -2 -21 -2 -30 0 -10 3 -4
5 12 5 17 0 24 -2 18 -5z m637 -13 c0 -5 -4 -10 -10 -10 -5 0 -10 5 -10 10 0
6 5 10 10 10 6 0 10 -4 10 -10z m-2602 -55 l13 -30 -21 25 c-11 14 -20 32 -20
40 0 19 13 3 28 -35z m-717 -35 c-6 -44 -9 -53 -10 -29 -1 37 9 102 15 96 2
-1 -1 -32 -5 -67z m2115 -125 c-2 -7 -20 -15 -39 -19 -41 -8 -117 18 -117 39
0 20 20 29 33 16 14 -14 45 -14 86 0 31 11 31 12 33 82 2 70 2 69 5 -17 2 -49
2 -95 -1 -101z m-1321 77 c11 -6 14 -12 8 -12 -7 0 -25 12 -41 28 -15 15 -19
20 -7 11 11 -9 29 -21 40 -27z m2395 13 c7 -9 8 -15 2 -15 -5 0 -12 7 -16 15
-3 8 -4 15 -2 15 2 0 9 -7 16 -15z m-1535 -50 c23 -11 24 -13 5 -7 -14 4 -51
7 -82 7 -43 0 -64 -5 -87 -22 -37 -28 -53 -30 -18 -3 52 41 126 51 182 25z
m1712 9 c-3 -3 -12 -4 -19 -1 -8 3 -5 6 6 6 11 1 17 -2 13 -5z m-3364 -89 c4
-32 3 -43 -3 -30 -8 19 -14 93 -6 84 2 -2 6 -26 9 -54z m1800 29 l42 -14 -40
6 c-22 3 -53 12 -70 19 l-30 14 28 -6 c16 -3 47 -12 70 -19z m-365 -24 c-7
-10 -14 -17 -17 -15 -4 4 18 35 25 35 2 0 -1 -9 -8 -20z m530 3 c-16 -2 -40
-2 -55 0 -16 2 -3 4 27 4 30 0 43 -2 28 -4z m-553 -92 c0 -33 -3 -54 -7 -48
-12 19 -7 107 6 107 0 0 1 -27 1 -59z m-185 30 c5 -11 10 -29 10 -41 0 -29
-43 -110 -74 -139 -14 -14 -26 -30 -26 -37 0 -17 56 -63 86 -70 35 -9 31 -34
-6 -34 -19 0 -42 11 -65 31 -33 29 -38 31 -61 19 -16 -9 -28 -10 -35 -3 -6 6
13 33 60 81 47 47 74 84 82 111 25 84 -16 94 -90 22 -40 -39 -51 -46 -51 -30
0 11 19 40 41 64 35 38 47 45 80 45 28 0 41 -5 49 -19z m-935 -24 l270 -3
-274 1 c-235 0 -275 2 -278 15 -3 11 -2 12 4 3 7 -9 79 -13 278 -16z m314 -22
c31 -15 81 -70 81 -87 0 -6 -10 4 -23 23 -12 18 -40 44 -62 56 -44 25 -41 32
4 8z m835 -90 c10 -14 31 -35 49 -45 18 -11 27 -20 20 -20 -6 0 -26 12 -44 27
-18 16 -41 27 -51 25 -18 -3 -25 18 -11 31 11 12 20 8 37 -18z m-747 -37 c-3
-8 -6 -5 -6 6 -1 11 2 17 5 13 3 -3 4 -12 1 -19z m200 6 c10 -28 -11 -36 -68
-27 -39 6 -55 13 -57 26 -3 15 5 17 58 17 46 0 62 -4 67 -16z m708 -65 c5 -5
-5 -4 -23 2 -17 6 -32 13 -32 16 0 7 43 -8 55 -18z m-908 -21 c-3 -8 -6 -5 -6
6 -1 11 2 17 5 13 3 -3 4 -12 1 -19z m950 6 c-3 -3 -12 -4 -19 -1 -8 3 -5 6 6
6 11 1 17 -2 13 -5z m-723 -24 c16 -16 -8 -33 -45 -32 -31 1 -69 26 -69 45 0
12 100 1 114 -13z m816 -1 c15 -4 18 -8 8 -8 -11 -1 -21 -14 -27 -39 -21 -75
-90 -156 -120 -138 -7 4 3 20 24 42 19 19 35 41 35 49 0 8 8 31 17 51 17 35
17 36 -2 51 -19 13 -18 14 10 7 17 -4 41 -11 55 -15z m-1070 -41 c-22 -29 -22
-32 -6 -58 20 -34 21 -60 2 -60 -8 0 -20 16 -26 36 -9 27 -16 34 -29 29 -41
-18 -52 -14 -13 4 25 12 50 34 63 56 12 20 24 33 27 30 3 -3 -5 -19 -18 -37z
m1168 25 c-10 -2 -26 -2 -35 0 -10 3 -2 5 17 5 19 0 27 -2 18 -5z m230 0 c-10
-2 -26 -2 -35 0 -10 3 -2 5 17 5 19 0 27 -2 18 -5z m49 -366 c-1 -67 -3 -9 -3
128 0 138 2 192 3 122 2 -71 2 -183 0 -250z m-154 356 c-13 -2 -33 -2 -45 0
-13 2 -3 4 22 4 25 0 35 -2 23 -4z m-553 -89 c0 -24 -10 -70 -22 -102 -12 -31
-21 -72 -21 -89 -1 -39 0 -39 -32 21 -26 49 -35 80 -10 36 l14 -25 21 48 c12
27 23 74 26 105 2 32 3 58 4 60 0 2 5 0 10 -3 6 -3 10 -26 10 -51z m-959 -1
c-58 -2 -111 -9 -118 -15 -9 -7 -13 -7 -13 1 0 7 -33 11 -100 11 l-100 0 -36
-56 c-20 -31 -43 -77 -52 -102 -8 -26 -17 -41 -20 -34 -5 16 38 106 78 161
l30 41 218 -2 c119 -1 170 -4 113 -5z m717 0 c-16 -2 -40 -2 -55 0 -16 2 -3 4
27 4 30 0 43 -2 28 -4z m-103 -15 c-11 -6 -31 -20 -45 -32 -14 -11 -11 -6 7
12 18 17 38 32 45 32 7 0 4 -6 -7 -12z m228 -58 l19 -35 -26 32 c-14 17 -39
41 -54 53 l-27 22 35 -19 c19 -10 43 -34 53 -53z m2485 28 c-6 -18 -28 -21
-28 -4 0 9 7 16 16 16 9 0 14 -5 12 -12z m-68 -47 c0 -14 10 -21 35 -25 34 -7
49 -26 20 -26 -8 0 -15 -4 -15 -10 0 -5 6 -10 13 -10 8 0 7 -4 -3 -10 -22 -14
-33 -12 -27 4 7 17 -17 41 -32 32 -5 -3 -9 10 -9 29 0 19 4 35 9 35 5 0 9 -8
9 -19z m-2732 -22 c-6 -16 -12 -28 -14 -26 -5 5 13 57 20 57 3 0 0 -14 -6 -31z
m2802 21 c0 -5 -5 -10 -11 -10 -5 0 -7 5 -4 10 3 6 8 10 11 10 2 0 4 -4 4 -10z
m-423 -42 c-3 -8 -6 -5 -6 6 -1 11 2 17 5 13 3 -3 4 -12 1 -19z m743 -38 c17
0 27 -5 27 -15 0 -8 -6 -15 -14 -15 -7 0 -13 5 -13 10 0 6 -6 10 -14 10 -7 0
-20 8 -27 18 -11 14 -11 15 1 5 8 -7 26 -13 40 -13z m-1116 -5 c-4 -8 -10 -12
-15 -9 -14 8 -10 24 6 24 9 0 12 -6 9 -15z m401 -78 c4 -6 -1 -3 -9 7 -9 11
-16 36 -15 55 l1 36 9 -43 c4 -23 11 -48 14 -55z m245 83 c0 -5 -4 -10 -10
-10 -5 0 -10 5 -10 10 0 6 5 10 10 10 6 0 10 -4 10 -10z m35 0 c3 -5 -1 -10
-9 -10 -9 0 -16 5 -16 10 0 6 4 10 9 10 6 0 13 -4 16 -10z m395 -30 c0 -11 -2
-20 -4 -20 -2 0 -6 9 -9 20 -3 11 -1 20 4 20 5 0 9 -9 9 -20z m-630 3 c0 -5
-12 -9 -27 -10 -19 -1 -22 1 -12 8 17 11 39 12 39 2z m28 -18 c-3 -3 -9 2 -12
12 -6 14 -5 15 5 6 7 -7 10 -15 7 -18z m-2478 -13 c0 -15 -2 -15 -10 -2 -13
20 -13 33 0 25 6 -3 10 -14 10 -23z m-979 -33 c-5 -26 -9 -34 -10 -19 -1 27 9
73 15 67 2 -2 0 -23 -5 -48z m4146 9 c-3 -8 -6 -5 -6 6 -1 11 2 17 5 13 3 -3
4 -12 1 -19z m-2748 -28 c11 -24 11 -24 -3 -6 -9 11 -16 24 -16 30 0 12 5 7
19 -24z m-373 -50 c13 -28 18 -47 11 -43 -19 12 -37 15 -104 20 -48 4 -63 8
-63 20 0 13 11 15 71 11 57 -4 69 -3 65 8 -28 67 -13 56 20 -16z m2479 4 c18
5 25 2 25 -9 0 -8 -7 -15 -15 -15 -24 0 -87 35 -110 60 -15 17 -7 14 28 -10
35 -23 54 -30 72 -26z m-2845 38 c0 -4 -4 -12 -9 -17 -17 -18 -31 -97 -20
-118 8 -14 13 -16 25 -6 8 6 14 20 14 30 0 22 13 25 27 7 17 -23 45 -216 38
-260 -7 -40 -54 -98 -80 -98 -6 0 -76 -66 -157 -147 -140 -141 -147 -150 -151
-193 l-4 -45 -1 45 -2 45 159 160 c88 88 167 173 176 190 8 16 13 21 10 10 -5
-16 -4 -18 7 -7 13 13 19 114 7 106 -4 -2 -9 9 -12 25 -8 37 -51 88 -91 107
l-31 14 30 -6 c24 -4 28 -3 18 7 -7 7 -13 22 -13 34 0 18 25 99 36 117 7 10
24 10 24 0z m1428 -14 c-3 -7 -14 -14 -26 -16 -30 -5 -27 -12 18 -47 35 -27
39 -34 38 -75 0 -25 -2 -37 -5 -27 -4 16 -7 16 -35 -4 -36 -26 -121 -38 -133
-19 -10 17 15 30 42 23 40 -9 73 5 73 32 0 23 -41 75 -60 75 -21 0 -20 23 1
46 24 26 94 36 87 12z m2279 -30 c-3 -8 -6 -5 -6 6 -1 11 2 17 5 13 3 -3 4
-12 1 -19z m-2782 -8 c14 -15 16 -23 7 -32 -8 -8 -16 -5 -31 13 l-19 24 -26
-24 c-32 -30 -32 -33 -2 -67 17 -20 36 -29 69 -33 42 -6 45 -7 32 -25 -14 -18
-16 -18 -59 8 -44 26 -136 121 -136 141 0 5 9 -1 20 -15 17 -23 20 -23 32 -9
33 41 85 50 113 19z m2845 16 c0 -2 -11 -6 -25 -8 -14 -3 -25 -1 -25 3 0 5 11
9 25 9 14 0 25 -2 25 -4z m-4432 -47 c-3 -8 -7 -3 -11 10 -4 17 -3 21 5 13 5
-5 8 -16 6 -23z m1873 7 c14 -30 -4 -70 -43 -99 -54 -40 -114 11 -87 75 15 36
34 47 82 48 30 0 40 -5 48 -24z m2666 -22 c-3 -3 -12 -4 -19 -1 -8 3 -5 6 6 6
11 1 17 -2 13 -5z m-4534 -54 c4 -30 3 -38 -3 -25 -8 19 -14 83 -6 74 2 -2 6
-24 9 -49z m1025 15 c15 -15 -59 -33 -110 -27 -29 3 -38 26 -15 36 14 6 117
-1 125 -9z m55 -15 c3 -11 2 -18 -3 -15 -4 3 -10 14 -13 25 -3 11 -2 18 3 15
4 -3 10 -14 13 -25z m-569 0 c-28 -4 -60 -13 -72 -19 -12 -6 -22 -9 -22 -6 0
13 67 34 105 33 38 0 38 -1 -11 -8z m-104 -33 c0 -1 -60 -61 -132 -132 l-133
-130 130 133 c120 123 135 137 135 129z m3964 -57 c21 -19 55 -56 75 -81 26
-32 40 -42 47 -35 20 22 52 82 64 121 7 22 15 34 18 27 4 -14 -46 -121 -73
-157 -15 -19 -16 -19 -42 15 -14 19 -58 66 -97 104 -71 69 -66 72 8 6z m-3254
20 c6 -11 8 -20 6 -20 -3 0 -10 9 -16 20 -6 11 -8 20 -6 20 3 0 10 -9 16 -20z
m1617 5 c0 -9 -10 -15 -24 -15 -12 0 -23 4 -23 10 0 5 6 7 14 4 8 -3 17 -1 21
5 9 15 12 14 12 -4z m40 1 c0 -8 -6 -12 -14 -9 -7 3 -13 9 -13 14 0 5 6 9 13
9 8 0 14 -6 14 -14z m-2673 -159 c21 -27 36 -51 33 -53 -5 -5 -78 99 -99 141
-9 17 -18 41 -22 55 -4 14 6 -2 22 -35 16 -33 46 -82 66 -108z m2011 144 c-7
-12 -418 -14 -447 -3 -10 4 86 6 212 4 179 -3 230 -1 230 9 0 7 3 10 6 6 3 -3
3 -10 -1 -16z m663 -23 c-6 -18 -28 -21 -28 -4 0 9 7 16 16 16 9 0 14 -5 12
-12z m330 0 c-2 -7 3 -12 10 -13 11 0 18 -15 7 -15 -15 -1 -37 19 -31 29 9 15
17 14 14 -1z m-1953 -24 c9 -15 12 -23 6 -20 -11 7 -35 46 -28 46 3 0 12 -12
22 -26z m1555 -29 c0 -13 6 -26 13 -28 7 -4 6 -6 -4 -6 -9 -1 -19 9 -23 22 -9
33 -7 49 4 42 6 -3 10 -17 10 -30z m395 5 c3 -6 -1 -7 -9 -4 -18 7 -21 14 -7
14 6 0 13 -4 16 -10z m-1895 -50 c30 -43 18 -37 -16 7 -15 20 -23 33 -16 29 6
-3 21 -20 32 -36z m1743 20 c3 -11 1 -20 -4 -20 -5 0 -9 9 -9 20 0 11 2 20 4
20 2 0 6 -9 9 -20z m-292 -13 c-13 -13 -26 -3 -16 12 3 6 11 8 17 5 6 -4 6
-10 -1 -17z m144 13 c3 -5 1 -10 -4 -10 -6 0 -11 5 -11 10 0 6 2 10 4 10 3 0
8 -4 11 -10z m255 -24 c0 -5 -7 -3 -15 4 -8 7 -12 17 -9 22 7 10 24 -9 24 -26z
m30 4 c0 -5 -4 -10 -10 -10 -5 0 -10 5 -10 10 0 6 5 10 10 10 6 0 10 -4 10
-10z m40 -31 c0 -5 -4 -9 -10 -9 -5 0 -10 7 -10 16 0 8 5 12 10 9 6 -3 10 -10
10 -16z m35 1 c3 -5 -1 -10 -9 -10 -9 0 -16 5 -16 10 0 6 4 10 9 10 6 0 13 -4
16 -10z m-1815 -90 c25 -18 37 -30 27 -27 -26 9 -124 89 -132 107 -3 8 9 1 27
-16 18 -17 53 -46 78 -64z m1865 61 c39 -8 38 -8 -17 -9 -32 0 -58 4 -58 9 0
11 21 11 75 0z m-185 -17 c0 -8 -4 -13 -9 -10 -5 4 -12 0 -14 -6 -3 -7 -6 -3
-6 10 -1 13 5 22 14 22 8 0 15 -7 15 -16z m153 -21 c-7 -2 -19 -2 -25 0 -7 3
-2 5 12 5 14 0 19 -2 13 -5z m77 1 c0 -8 -19 -13 -24 -6 -3 5 1 9 9 9 8 0 15
-2 15 -3z m125 -4 c19 -7 26 -16 23 -32 -3 -20 -38 -36 -38 -17 0 5 8 9 17 9
15 0 14 2 -3 18 -11 11 -26 22 -34 25 -9 3 -10 6 -3 6 6 1 24 -4 38 -9z m438
3 c3 -5 -13 -8 -34 -8 -21 -1 -39 3 -39 7 0 10 67 11 73 1z m-793 -31 c0 -4
-12 -8 -27 -9 -24 -1 -25 -1 -8 7 26 11 35 12 35 2z m325 -3 c10 -15 2 -19
-24 -12 -17 4 -19 8 -9 14 18 12 26 11 33 -2z m134 -15 c15 -15 14 -16 -14
-10 -16 4 -37 14 -45 22 -13 13 -12 15 14 10 16 -3 37 -13 45 -22z m264 10
c-3 -9 -9 -12 -12 -7 -3 4 -10 11 -15 16 -5 4 0 7 12 7 15 0 20 -4 15 -16z
m-793 -8 c0 -3 -4 -8 -10 -11 -5 -3 -10 -1 -10 4 0 6 5 11 10 11 6 0 10 -2 10
-4z m1087 -22 c-3 -3 -12 -4 -19 -1 -8 3 -5 6 6 6 11 1 17 -2 13 -5z m-487
-27 c8 -3 -7 -6 -35 -6 -27 0 -59 -1 -69 -3 -10 -2 -21 3 -24 11 -3 10 3 12
24 7 16 -3 36 -2 43 3 8 5 22 6 30 2 9 -5 23 -11 31 -14z m-2134 5 c17 -11 34
-48 34 -74 0 -27 -27 -73 -65 -110 -32 -33 -25 -50 31 -70 37 -13 43 -23 18
-32 -27 -10 -42 -7 -72 19 -17 14 -34 25 -38 25 -5 0 58 -67 141 -150 100
-100 153 -146 160 -140 15 13 55 1 55 -16 0 -8 -10 -14 -25 -14 -29 0 -30 -3
-9 -35 9 -14 14 -25 11 -25 -3 0 -16 17 -28 38 -13 20 -86 101 -162 179 -153
156 -192 180 -268 170 -22 -3 -58 -17 -80 -31 -21 -15 -39 -24 -39 -21 0 2 18
17 40 31 28 19 60 28 111 34 77 9 104 23 152 82 24 30 27 41 22 72 -10 52 -38
48 -96 -14 -48 -52 -71 -53 -45 -3 34 66 114 111 152 85z m124 -23 c27 -15
-11 -10 -45 6 l-30 14 30 -6 c17 -3 37 -9 45 -14z m-856 -60 l11 -54 47 -5
c75 -9 75 -26 1 -32 l-33 -3 25 -50 c14 -27 30 -54 35 -59 18 -18 11 -27 -17
-24 -23 2 -34 15 -66 75 l-38 73 -47 -6 c-29 -3 -53 -12 -62 -23 -8 -11 -28
-35 -43 -55 -53 -69 -66 -32 -15 42 18 26 41 63 52 82 30 56 66 95 95 101 35
7 41 1 55 -62z m909 44 c-7 -2 -19 -2 -25 0 -7 3 -2 5 12 5 14 0 19 -2 13 -5z
m514 -33 c2 -21 1 -22 -5 -6 -11 26 -50 28 -68 2 -16 -23 -18 -52 -5 -60 12
-8 63 12 73 27 4 7 8 -101 8 -239 l0 -252 -35 16 c-43 20 -44 30 -5 43 l30 11
0 188 0 188 -37 -10 c-49 -13 -59 -22 -67 -60 -10 -50 -44 -96 -76 -103 -37
-8 -70 2 -70 21 0 17 14 18 40 4 16 -8 22 -6 35 14 23 34 46 126 33 126 -6 0
-4 8 5 18 27 29 40 74 25 84 -7 5 -74 6 -148 3 -74 -2 -153 -1 -175 4 -27 6
40 8 200 7 l240 -1 2 -25z m-1019 4 c24 -7 30 -30 10 -37 -7 -2 -26 0 -43 5
-16 4 -51 8 -77 8 -45 0 -63 12 -35 23 17 8 118 8 145 1z m3146 -169 c0 -55
-5 -111 -11 -125 -9 -20 -10 -15 -5 30 9 72 8 145 -1 195 -7 35 -6 37 5 20 9
-13 13 -54 12 -120z m-3105 89 c13 -11 -18 -24 -59 -24 -48 0 -67 10 -55 29 5
9 103 4 114 -5z m604 -102 c-2 -55 -33 -129 -64 -158 -19 -17 -20 -17 -13 2 3
10 15 37 25 59 10 22 21 66 25 98 9 72 30 72 27 -1z m2317 17 c12 -9 12 -10
-4 -5 -11 4 -23 1 -27 -6 -4 -7 -11 -9 -16 -5 -4 5 -1 12 7 17 19 12 22 12 40
-1z m-2980 -89 c-6 -11 -13 -20 -16 -20 -2 0 0 9 6 20 6 11 13 20 16 20 2 0 0
-9 -6 -20z m-711 -50 c1 -13 0 -13 -9 0 -5 8 -9 26 -9 40 l1 25 8 -25 c4 -14
8 -32 9 -40z m3653 -2 c-9 -9 -12 -7 -12 12 0 19 3 21 12 12 9 -9 9 -15 0 -24z
m-2965 -55 c-2 -16 -4 -5 -4 22 0 28 2 40 4 28 2 -13 2 -35 0 -50z m-567 -158
l52 -60 -54 57 c-54 56 -99 129 -112 178 -4 14 9 -6 28 -45 19 -38 58 -97 86
-130z m3523 168 c-7 -2 -19 -2 -25 0 -7 3 -2 5 12 5 14 0 19 -2 13 -5z m-2849
-163 c36 -35 66 -68 66 -73 0 -5 -28 19 -62 54 -47 48 -63 60 -66 47 -3 -14
-17 -17 -98 -17 -88 1 -116 9 -78 23 9 3 51 6 95 6 46 0 79 4 79 10 0 6 -4 10
-8 10 -5 0 -14 11 -20 25 -18 39 -14 44 7 10 10 -16 49 -59 85 -95z m-585 59
c-5 -11 -9 -34 -7 -52 4 -43 30 -46 69 -7 18 17 37 29 44 26 17 -6 84 -110 99
-153 l13 -38 69 -6 c64 -5 65 -6 18 -7 -67 -3 -144 8 -144 20 0 5 5 6 10 3 18
-11 10 7 -29 66 -22 32 -41 64 -44 71 -3 9 -12 6 -30 -10 -18 -17 -34 -23 -58
-20 -32 3 -34 6 -37 44 -3 46 13 98 28 89 7 -4 6 -13 -1 -26z m1401 -78 c-1
-39 -67 -83 -113 -74 -30 6 -51 41 -41 67 5 12 66 47 104 59 18 6 50 -28 50
-52z m-884 -12 c7 -12 -32 -26 -98 -34 -38 -5 -58 -3 -63 5 -11 18 2 24 58 30
77 9 97 8 103 -1z m635 -40 c39 13 39 13 39 1 0 -5 -13 -16 -29 -25 -28 -14
-29 -17 -19 -46 6 -16 8 -33 4 -36 -3 -4 -6 0 -6 8 0 8 -11 39 -25 69 -14 30
-19 47 -11 36 13 -16 19 -17 47 -7z m-1160 -6 c13 -16 12 -17 -3 -4 -10 7 -18
15 -18 17 0 8 8 3 21 -13z m1549 -20 c0 -21 -4 -33 -8 -26 -4 6 -21 13 -37 15
l-30 5 33 14 c17 7 32 17 32 21 0 4 2 8 5 8 3 0 5 -17 5 -37z m-844 -15 c47
-52 73 -88 36 -51 -26 26 -40 33 -72 33 -43 0 -55 20 -22 39 24 15 25 14 58
-21z m-600 -26 c-5 -4 -86 36 -86 43 0 3 20 -5 45 -17 24 -12 43 -23 41 -26z
m44 -12 c8 -5 11 -10 5 -10 -5 0 -17 5 -25 10 -8 5 -10 10 -5 10 6 0 17 -5 25
-10z m1397 -37 c-3 -10 -5 -2 -5 17 0 19 2 27 5 18 2 -10 2 -26 0 -35z m-1131
-9 c19 -15 19 -15 -1 -6 -11 5 -27 12 -35 15 -13 5 -13 6 1 6 8 1 24 -6 35
-15z m65 -56 c16 -29 2 -21 -22 15 -17 23 -18 28 -6 18 10 -8 23 -23 28 -33z
m318 12 c11 -24 11 -24 -3 -6 -9 11 -16 24 -16 30 0 12 5 7 19 -24z m746 -27
c-9 -50 -17 -34 -9 18 4 24 9 38 12 31 2 -7 1 -29 -3 -49z m-368 15 c-3 -7 -5
-2 -5 12 0 14 2 19 5 13 2 -7 2 -19 0 -25z m186 -52 c4 -41 8 -79 9 -84 2 -6
-1 -12 -7 -13 -6 -2 -11 20 -13 51 -4 84 -8 88 -46 44 -19 -21 -37 -37 -40
-34 -3 3 13 25 34 49 22 24 40 47 40 52 0 5 4 9 9 9 4 0 11 -34 14 -74z m-527
-101 l2 -100 -8 100 c-4 55 -10 109 -14 120 l-8 20 13 -20 c8 -12 14 -59 15
-120z m363 -8 c1 -56 6 -76 31 -121 17 -29 39 -61 50 -71 17 -15 22 -16 37 -4
16 12 17 12 6 -2 -13 -15 -122 -73 -128 -67 -1 2 -5 95 -7 208 -2 113 0 187 4
165 4 -22 7 -70 7 -108z m-685 78 c4 -19 3 -25 -3 -15 -4 8 -11 29 -15 45 -4
19 -3 25 3 15 4 -8 11 -28 15 -45z m1001 -30 c-22 -60 -29 -53 -7 7 9 26 18
45 21 43 2 -3 -4 -25 -14 -50z m-956 -67 c18 -32 30 -58 27 -58 -7 0 -66 102
-66 114 0 12 2 10 39 -56z m921 -8 c-6 -11 -13 -20 -16 -20 -2 0 0 9 6 20 6
11 13 20 16 20 2 0 0 -9 -6 -20z m-29 -47 c-5 -10 -33 -40 -62 -68 l-53 -50
60 67 c62 71 71 79 55 51z m-806 -63 c27 -27 47 -50 44 -50 -3 0 -27 23 -54
50 -27 28 -47 50 -44 50 3 0 27 -22 54 -50z m105 -87 c0 -7 -39 17 -46 28 -3
6 5 3 20 -6 14 -10 26 -19 26 -22z m87 -39 c-2 -3 -16 0 -31 6 l-26 10 27 31
28 31 3 -37 c2 -20 1 -39 -1 -41z"/>
<path d="M4290 5818 c0 -18 2 -20 10 -8 6 10 10 11 10 3 0 -7 4 -13 9 -13 16
0 5 35 -12 38 -12 3 -17 -3 -17 -20z"/>
<path d="M4540 5765 c0 -8 5 -15 11 -15 5 0 7 -5 4 -10 -4 -6 -11 -8 -16 -4
-5 3 -8 0 -7 -7 2 -6 -19 -18 -48 -26 -42 -12 -51 -18 -47 -33 3 -12 -2 -20
-14 -23 -10 -3 37 -5 104 -6 l121 -1 -11 31 c-7 17 -21 42 -33 54 -12 13 -24
30 -27 39 -8 20 -37 21 -37 1z m-70 -105 c0 -5 -4 -10 -10 -10 -5 0 -10 5 -10
10 0 6 5 10 10 10 6 0 10 -4 10 -10z"/>
<path d="M4078 5753 c7 -3 16 -2 19 1 4 3 -2 6 -13 5 -11 0 -14 -3 -6 -6z"/>
<path d="M4383 5713 c9 -2 25 -2 35 0 9 3 1 5 -18 5 -19 0 -27 -2 -17 -5z"/>
<path d="M3748 5634 c-2 -5 -3 -15 -2 -21 1 -7 2 -17 3 -23 0 -5 8 -10 16 -10
8 0 15 -8 14 -17 0 -11 -3 -13 -6 -5 -2 6 -12 12 -20 12 -11 0 -14 -6 -9 -22
3 -13 6 -26 6 -30 0 -5 7 -8 15 -8 8 0 15 -5 15 -11 0 -6 -7 -9 -15 -5 -8 3
-15 2 -15 -3 0 -12 67 -19 82 -10 7 5 18 3 25 -3 10 -8 13 -5 11 13 -3 27 -34
49 -57 42 -14 -4 -14 -3 -1 6 12 9 12 11 -2 16 -10 4 -14 13 -11 21 4 12 18
14 62 9 53 -6 55 -5 31 9 -16 10 -20 16 -10 17 8 1 -3 5 -25 10 -22 4 -51 10
-64 13 -19 4 -22 3 -13 -6 15 -15 15 -28 2 -28 -6 0 -14 10 -19 22 -4 12 -10
17 -13 12z m77 -24 c3 -5 -1 -10 -9 -10 -9 0 -16 5 -16 10 0 6 4 10 9 10 6 0
13 -4 16 -10z"/>
<path d="M3708 5623 c7 -3 16 -2 19 1 4 3 -2 6 -13 5 -11 0 -14 -3 -6 -6z"/>
<path d="M3670 5583 c8 -3 18 -11 22 -17 5 -7 8 -4 8 7 0 11 -7 17 -22 16 -16
0 -18 -2 -8 -6z"/>
<path d="M3850 5556 c0 -2 7 -7 16 -10 8 -3 12 -2 9 4 -6 10 -25 14 -25 6z"/>
<path d="M3890 5531 c0 -25 6 -27 13 -6 4 8 2 17 -3 20 -6 4 -10 -3 -10 -14z"/>
<path d="M3640 5460 c0 -5 4 -10 9 -10 6 0 13 5 16 10 3 6 -1 10 -9 10 -9 0
-16 -4 -16 -10z"/>
<path d="M4570 5211 c0 -6 4 -13 10 -16 6 -3 7 1 4 9 -7 18 -14 21 -14 7z"/>
<path d="M4322 5182 c-12 -2 -20 -8 -17 -13 6 -8 -8 -13 -27 -10 -11 1 -10 -6
4 -29 7 -10 9 -23 5 -27 -5 -4 -12 -1 -17 7 -7 11 -10 12 -10 2 0 -7 -4 -10
-10 -7 -5 3 -10 -1 -10 -9 0 -10 9 -16 23 -17 20 -1 21 -1 2 -7 -25 -9 -31
-32 -7 -33 10 0 12 -3 5 -6 -7 -2 -13 -18 -13 -34 0 -28 2 -29 45 -29 25 0 45
5 45 10 0 6 -7 10 -16 10 -8 0 -12 5 -9 10 4 6 15 8 25 5 10 -3 21 -1 25 4 4
7 -1 8 -11 4 -11 -4 -15 -2 -11 4 3 5 -5 16 -18 23 -14 7 -25 22 -25 33 0 17
5 18 52 12 28 -4 58 -14 66 -21 19 -20 32 -17 32 6 0 28 30 26 31 -2 1 -18 2
-19 6 -5 3 11 -5 27 -21 42 -24 22 -25 22 -41 5 -16 -18 -50 -17 -39 1 3 5
-11 9 -31 9 -22 0 -34 -4 -30 -10 3 -5 -1 -10 -9 -10 -19 0 -19 2 -5 34 7 14
15 23 19 21 4 -3 13 2 19 9 14 17 4 23 -27 18z"/>
<path d="M4370 5180 c0 -5 11 -10 25 -10 14 0 25 5 25 10 0 6 -11 10 -25 10
-14 0 -25 -4 -25 -10z"/>
<path d="M4440 5181 c0 -14 46 -29 61 -21 11 8 11 10 -1 14 -35 11 -60 14 -60
7z"/>
<path d="M3936 5144 c-3 -8 -10 -12 -16 -9 -5 3 -10 1 -10 -4 0 -6 5 -11 11
-11 6 0 3 -7 -6 -16 -15 -15 -15 -18 4 -35 26 -24 31 -24 31 1 0 27 28 25 33
-2 l4 -23 2 22 c0 13 -7 27 -20 33 -16 9 -19 18 -15 36 7 26 -8 33 -18 8z"/>
<path d="M3984 5135 c9 -35 5 -31 33 -39 18 -6 20 -4 16 14 -3 11 -9 20 -13
20 -5 0 -16 8 -26 17 -17 17 -17 16 -10 -12z"/>
<path d="M4490 5115 c0 -8 4 -15 9 -15 5 0 17 -3 25 -6 12 -5 15 -2 10 10 -4
10 -13 15 -21 12 -8 -3 -11 -1 -8 4 3 6 1 10 -4 10 -6 0 -11 -7 -11 -15z"/>
<path d="M4560 5115 c0 -8 5 -16 10 -16 6 -1 14 -2 19 -3 6 0 19 -11 31 -23
24 -27 40 -29 40 -8 0 18 26 20 33 3 3 -8 6 -6 6 5 1 11 -7 17 -21 18 -52 2
-98 17 -98 30 0 5 -4 9 -10 9 -5 0 -10 -7 -10 -15z"/>
<path d="M4100 5102 c0 -4 10 -19 22 -31 19 -22 22 -22 33 -7 16 21 32 20 38
-1 4 -14 5 -12 6 5 1 18 -4 22 -30 22 -17 0 -39 5 -50 10 -10 6 -19 7 -19 2z"/>
<path d="M3745 5081 c-3 -5 -2 -12 3 -15 5 -3 9 1 9 9 0 17 -3 19 -12 6z"/>
<path d="M4021 5064 c0 -11 3 -14 6 -6 3 7 2 16 -1 19 -3 4 -6 -2 -5 -13z"/>
<path d="M4060 5028 l0 -53 48 -16 c40 -13 50 -13 60 -2 11 11 7 13 -18 13
-27 0 -30 3 -30 31 0 21 -9 40 -26 55 -14 13 -27 24 -30 24 -2 0 -4 -24 -4
-52z"/>
<path d="M4521 5064 c0 -11 3 -14 6 -6 3 7 2 16 -1 19 -3 4 -6 -2 -5 -13z"/>
<path d="M4560 5025 c0 -42 4 -55 15 -55 9 0 12 6 8 16 -4 12 -2 15 8 12 8 -3
14 -10 14 -15 0 -6 3 -15 8 -19 4 -4 7 10 7 31 0 28 -7 44 -26 61 -14 13 -27
24 -30 24 -2 0 -4 -25 -4 -55z"/>
<path d="M4390 5031 c0 -12 5 -21 10 -21 6 0 10 6 10 14 0 8 -4 18 -10 21 -5
3 -10 -3 -10 -14z"/>
<path d="M4020 4996 c0 -31 6 -34 13 -6 3 11 1 23 -4 26 -5 3 -9 -6 -9 -20z"/>
<path d="M4520 5010 c0 -5 5 -10 11 -10 5 0 7 5 4 10 -3 6 -8 10 -11 10 -2 0
-4 -4 -4 -10z"/>
<path d="M4402 4980 c0 -14 2 -19 5 -12 2 6 2 18 0 25 -3 6 -5 1 -5 -13z"/>
<path d="M4760 4985 c0 -8 9 -15 20 -15 11 0 20 7 20 15 0 8 -9 15 -20 15 -11
0 -20 -7 -20 -15z"/>
<path d="M4901 4984 c0 -11 3 -14 6 -6 3 7 2 16 -1 19 -3 4 -6 -2 -5 -13z"/>
<path d="M4810 4980 c0 -6 7 -10 15 -10 8 0 15 2 15 4 0 2 -7 6 -15 10 -8 3
-15 1 -15 -4z"/>
<path d="M4645 4960 c3 -5 12 -7 20 -3 21 7 19 13 -6 13 -11 0 -18 -4 -14 -10z"/>
<path d="M4350 4950 c0 -5 5 -10 10 -10 6 0 10 5 10 10 0 6 -4 10 -10 10 -5 0
-10 -4 -10 -10z"/>
<path d="M4770 4774 c0 -16 -2 -17 -10 -4 -7 11 -10 7 -10 -17 0 -18 5 -33 10
-33 14 0 12 -27 -2 -33 -8 -3 -6 -6 5 -6 9 -1 17 -7 17 -15 0 -12 20 -26 38
-26 4 0 12 8 19 19 10 16 9 19 -13 19 -30 0 -30 -1 -38 40 -5 28 -3 35 13 39
11 3 22 12 26 20 4 13 3 14 -10 3 -12 -10 -18 -10 -30 0 -12 10 -15 9 -15 -6z
m50 -114 c0 -5 -2 -10 -4 -10 -3 0 -8 5 -11 10 -3 6 -1 10 4 10 6 0 11 -4 11
-10z"/>
<path d="M4630 4750 c0 -5 14 -7 33 -3 45 8 47 13 4 13 -20 0 -37 -4 -37 -10z"/>
<path d="M3885 4550 c-3 -5 -2 -10 4 -10 5 0 13 5 16 10 3 6 2 10 -4 10 -5 0
-13 -4 -16 -10z"/>
<path d="M5227 4525 c-15 -22 -16 -25 -2 -25 8 0 14 6 13 12 -2 7 7 14 20 16
12 2 20 8 17 13 -10 16 -29 9 -48 -16z"/>
<path d="M4294 4510 c0 -11 11 -15 37 -15 46 -1 42 21 -5 27 -23 3 -32 0 -32
-12z"/>
<path d="M4100 4505 c0 -8 -9 -15 -20 -15 -11 0 -20 -3 -20 -8 0 -12 68 -29
82 -21 10 7 8 9 -4 9 -12 0 -18 8 -18 25 0 14 -4 25 -10 25 -5 0 -10 -7 -10
-15z"/>
<path d="M4255 4489 c-4 -6 -5 -12 -2 -15 2 -3 7 2 10 11 7 17 1 20 -8 4z"/>
<path d="M3856 4387 c-6 -25 -5 -42 3 -50 15 -15 17 -8 11 43 l-6 45 -8 -38z"/>
<path d="M4021 4389 c-1 -23 5 -42 16 -50 15 -13 15 -12 4 9 -6 12 -10 26 -8
30 3 4 1 16 -4 27 -6 16 -8 12 -8 -16z"/>
<path d="M4160 4363 c0 -14 4 -22 10 -18 6 4 8 10 5 15 -3 5 3 10 12 12 15 3
14 5 -4 10 -19 5 -23 2 -23 -19z"/>
<path d="M3903 4335 c0 -27 2 -38 4 -22 2 15 2 37 0 50 -2 12 -4 0 -4 -28z"/>
<path d="M4078 4373 c6 -2 18 -2 25 0 6 3 1 5 -13 5 -14 0 -19 -2 -12 -5z"/>
<path d="M4231 4353 c-1 -16 6 -19 58 -28 31 -5 42 -4 37 4 -4 6 -25 11 -46
11 -21 0 -41 6 -43 13 -4 9 -6 9 -6 0z"/>
<path d="M4350 4351 c0 -5 7 -11 14 -14 10 -4 13 -1 9 9 -6 15 -23 19 -23 5z"/>
<path d="M4401 4344 c0 -11 3 -14 6 -6 3 7 2 16 -1 19 -3 4 -6 -2 -5 -13z"/>
<path d="M3787 4319 c4 -16 8 -17 14 -7 7 10 9 9 9 -4 0 -19 25 -25 35 -9 7
13 -23 41 -45 41 -13 0 -17 -5 -13 -21z"/>
<path d="M3692 4310 c0 -14 2 -19 5 -12 2 6 2 18 0 25 -3 6 -5 1 -5 -13z"/>
<path d="M4192 4310 c0 -14 2 -19 5 -12 2 6 2 18 0 25 -3 6 -5 1 -5 -13z"/>
<path d="M4310 4298 c0 -6 -13 -8 -32 -5 -18 3 -27 3 -20 0 6 -2 12 -12 12
-21 0 -15 -2 -15 -10 -2 -8 12 -10 9 -10 -12 0 -28 0 -28 70 -28 49 0 70 4 70
13 0 9 2 9 9 -1 7 -11 9 -11 14 1 4 10 -2 14 -16 14 -42 1 -47 3 -47 22 0 10
-9 21 -20 24 -11 3 -20 0 -20 -5z"/>
<path d="M4160 4250 c0 -5 6 -7 14 -4 8 3 16 -2 19 -13 4 -14 5 -14 6 5 1 16
-5 22 -19 22 -11 0 -20 -4 -20 -10z"/>
<path d="M5192 4230 c0 -14 2 -19 5 -12 2 6 2 18 0 25 -3 6 -5 1 -5 -13z"/>
<path d="M5250 4230 c0 -5 9 -10 20 -10 11 0 20 5 20 10 0 6 -9 10 -20 10 -11
0 -20 -4 -20 -10z"/>
<path d="M5268 4193 c-19 -5 -25 -23 -8 -23 6 0 10 -8 10 -17 1 -24 30 -64 30
-41 0 9 11 19 24 22 27 7 42 44 21 52 -8 3 -19 3 -25 -1 -5 -3 -10 -1 -10 4 0
11 -11 12 -42 4z"/>
<path d="M5370 4185 c0 -8 5 -15 10 -15 6 0 10 7 10 15 0 8 -4 15 -10 15 -5 0
-10 -7 -10 -15z"/>
<path d="M5060 4166 c0 -2 11 -6 25 -8 14 -3 25 -1 25 3 0 5 -11 9 -25 9 -14
0 -25 -2 -25 -4z"/>
<path d="M5191 4143 c-1 -18 4 -23 22 -22 15 1 17 3 5 6 -9 2 -19 12 -21 21
-3 12 -5 10 -6 -5z"/>
<path d="M5069 4148 c-6 -12 -4 -48 2 -49 5 -1 14 -2 20 -3 6 0 16 -9 23 -18
7 -10 16 -15 19 -11 4 3 7 1 7 -5 0 -7 5 -12 10 -12 6 0 9 13 8 30 -1 20 -6
26 -12 20 -14 -14 -26 -12 -26 5 0 9 9 15 23 16 13 0 5 6 -23 15 -49 15 -49
15 -51 12z"/>
<path d="M5335 4100 c-16 -4 -23 -8 -15 -9 8 -1 25 -4 38 -7 16 -5 22 -2 22
10 0 17 0 17 -45 6z"/>
<path d="M5186 4075 c4 -8 8 -15 10 -15 2 0 4 7 4 15 0 8 -4 15 -10 15 -5 0
-7 -7 -4 -15z"/>
<path d="M5067 4043 c-15 -26 1 -59 39 -78 21 -11 42 -24 46 -30 5 -6 8 -3 8
7 0 9 6 19 13 21 6 3 -2 6 -20 6 -29 1 -32 4 -35 39 -2 29 -8 38 -25 40 -11 2
-23 0 -26 -5z"/>
<path d="M5260 4021 c-27 -51 3 -68 47 -27 25 24 25 24 5 35 -29 16 -40 14
-52 -8z"/>
<path d="M5341 4014 c0 -11 3 -14 6 -6 3 7 2 16 -1 19 -3 4 -6 -2 -5 -13z"/>
<path d="M3818 3993 c7 -3 16 -2 19 1 4 3 -2 6 -13 5 -11 0 -14 -3 -6 -6z"/>
<path d="M3650 3960 c0 -5 7 -10 15 -10 8 0 15 5 15 10 0 6 -7 10 -15 10 -8 0
-15 -4 -15 -10z"/>
<path d="M3696 3959 c3 -5 11 -9 19 -9 7 0 16 -8 18 -17 4 -14 5 -14 6 3 1 16
-6 23 -24 26 -13 3 -22 1 -19 -3z"/>
<path d="M3852 3898 c2 -34 8 -63 13 -65 6 -2 9 22 7 62 -2 36 -8 65 -13 65
-6 0 -9 -27 -7 -62z"/>
<path d="M5232 3940 c0 -14 2 -19 5 -12 2 6 2 18 0 25 -3 6 -5 1 -5 -13z"/>
<path d="M3657 3875 c-7 -17 8 -40 17 -26 4 6 4 11 -1 12 -4 0 1 4 11 8 19 7
19 8 -1 13 -13 3 -24 1 -26 -7z"/>
<path d="M5160 3863 c0 -14 4 -22 10 -18 6 4 8 10 5 15 -3 5 3 10 12 12 15 3
14 5 -4 10 -19 5 -23 2 -23 -19z"/>
<path d="M5088 3873 c7 -3 16 -2 19 1 4 3 -2 6 -13 5 -11 0 -14 -3 -6 -6z"/>
<path d="M5234 3855 c1 -12 9 -21 21 -22 14 -1 15 0 3 3 -9 3 -19 13 -21 22
-3 12 -4 11 -3 -3z"/>
<path d="M3900 3833 c-5 -39 -4 -43 16 -43 12 0 25 -6 27 -12 3 -8 6 -6 6 5 1
10 -6 17 -18 17 -16 0 -21 8 -23 38 l-3 37 -5 -42z"/>
<path d="M4020 3856 c0 -2 8 -10 18 -17 15 -13 16 -12 3 4 -13 16 -21 21 -21
13z"/>
<path d="M3692 3810 c0 -14 2 -19 5 -12 2 6 2 18 0 25 -3 6 -5 1 -5 -13z"/>
<path d="M5192 3810 c0 -14 2 -19 5 -12 2 6 2 18 0 25 -3 6 -5 1 -5 -13z"/>
<path d="M5291 3814 c0 -11 3 -14 6 -6 3 7 2 16 -1 19 -3 4 -6 -2 -5 -13z"/>
<path d="M5310 3814 c0 -17 22 -14 28 4 2 7 -3 12 -12 12 -9 0 -16 -7 -16 -16z"/>
<path d="M4318 3813 c7 -3 16 -2 19 1 4 3 -2 6 -13 5 -11 0 -14 -3 -6 -6z"/>
<path d="M5268 3785 c13 -9 26 -14 29 -11 8 8 3 12 -27 21 l-25 7 23 -17z"/>
<path d="M5449 3771 c8 -5 9 -11 3 -15 -6 -3 -13 -2 -17 4 -3 5 -23 10 -43 9
-20 0 -31 -3 -24 -6 17 -7 15 -21 -5 -26 -17 -4 -17 -5 0 -6 9 0 17 -8 17 -17
0 -11 5 -14 16 -10 14 5 15 4 5 -7 -18 -22 12 -40 62 -38 108 5 120 13 60 45
-67 37 -66 36 -47 57 16 18 16 19 -12 19 -20 0 -25 -3 -15 -9z m1 -41 c0 -5
-10 -10 -22 -10 -19 0 -20 2 -8 10 19 13 30 13 30 0z"/>
<path d="M4068 3753 c6 -2 18 -2 25 0 6 3 1 5 -13 5 -14 0 -19 -2 -12 -5z"/>
<path d="M5110 3756 c0 -9 37 -12 55 -5 15 6 11 8 -17 8 -21 1 -38 -1 -38 -3z"/>
<path d="M4030 3710 c0 -5 7 -10 15 -10 8 0 15 5 15 10 0 6 -7 10 -15 10 -8 0
-15 -4 -15 -10z"/>
<path d="M5545 3710 c-3 -5 -4 -10 -1 -10 2 0 12 -3 20 -6 12 -5 15 -2 10 10
-7 18 -20 21 -29 6z"/>
<path d="M5297 3696 c-6 -15 19 -30 34 -20 6 3 5 11 -2 20 -15 18 -25 18 -32
0z"/>
<path d="M4190 3638 c0 -12 7 -18 23 -17 15 0 17 2 7 6 -8 3 -18 11 -22 17 -5
7 -8 4 -8 -6z"/>
<path d="M4275 3630 c3 -5 10 -10 16 -10 5 0 9 5 9 10 0 6 -7 10 -16 10 -8 0
-12 -4 -9 -10z"/>
<path d="M4319 3629 c-8 -5 -8 -8 1 -14 6 -4 14 -4 17 -1 3 3 18 -1 33 -9 26
-13 28 -13 23 4 -5 20 -53 33 -74 20z"/>
<path d="M4410 3600 c0 -12 28 -25 36 -17 3 3 -4 10 -15 17 -15 7 -21 7 -21 0z"/>
<path d="M5240 3595 c0 -18 -1 -18 -33 -6 -14 6 -28 7 -32 3 -4 -4 -12 -7 -18
-7 -7 -1 -11 -5 -10 -11 1 -5 -8 -11 -20 -12 -55 -6 -62 -8 -69 -16 -3 -5 -17
-10 -30 -12 -12 -1 -25 -3 -27 -3 -2 -1 2 -8 9 -16 10 -12 10 -15 -4 -15 -21
0 -20 -10 1 -25 20 -15 53 -8 53 11 0 11 8 10 42 -2 30 -10 39 -11 30 -2 -17
17 -15 48 3 48 8 0 15 3 15 8 0 4 32 8 70 10 68 2 71 1 80 -23 15 -39 13 -42
-20 -37 -25 4 -31 0 -40 -23 -14 -36 -13 -52 3 -33 11 15 34 22 64 19 7 0 21
-19 31 -41 10 -22 21 -38 25 -35 4 3 3 -1 -3 -7 -5 -7 -10 -18 -10 -26 0 -8
-8 -21 -17 -28 -10 -7 -18 -18 -19 -26 0 -7 -2 -22 -2 -33 -2 -14 -5 -16 -13
-8 -14 14 -49 5 -49 -14 0 -8 4 -12 9 -8 5 3 12 1 16 -5 3 -5 -3 -10 -13 -10
-11 0 -25 -7 -32 -15 -14 -17 -46 -20 -53 -5 -3 6 -4 5 -3 -2 5 -23 41 -19
107 12 35 16 56 30 46 30 -10 0 -15 5 -12 10 4 6 11 7 17 4 7 -5 9 -1 5 9 -3
8 1 21 9 27 8 7 14 19 14 26 0 8 10 14 23 14 13 0 31 6 41 13 15 11 15 15 4
24 -7 6 -17 11 -23 11 -5 0 -15 15 -21 33 -6 18 -21 36 -34 41 -14 5 -20 14
-16 23 3 8 2 15 -2 15 -4 0 -7 25 -6 55 0 31 -2 57 -5 59 -3 2 -23 6 -43 10
-31 6 -38 4 -38 -9z m65 -365 c3 -5 2 -10 -4 -10 -5 0 -13 5 -16 10 -3 6 -2
10 4 10 5 0 13 -4 16 -10z"/>
<path d="M5428 3573 c7 -3 16 -2 19 1 4 3 -2 6 -13 5 -11 0 -14 -3 -6 -6z"/>
<path d="M5390 3525 c0 -8 5 -15 10 -15 6 0 10 7 10 15 0 8 -4 15 -10 15 -5 0
-10 -7 -10 -15z"/>
<path d="M5520 3492 c0 -18 4 -32 8 -32 9 0 8 47 -1 57 -4 3 -7 -8 -7 -25z"/>
<path d="M5402 3480 c0 -14 2 -19 5 -12 2 6 2 18 0 25 -3 6 -5 1 -5 -13z"/>
<path d="M4327 3444 c3 -7 9 -14 14 -14 14 0 10 17 -5 23 -10 4 -13 1 -9 -9z"/>
<path d="M5703 3394 c-3 -9 -13 -14 -24 -11 -15 4 -19 0 -19 -20 0 -14 4 -22
10 -18 6 4 8 11 5 16 -4 5 3 9 13 9 11 0 22 9 25 20 6 24 -1 27 -10 4z"/>
<path d="M4583 3372 c0 -18 9 -34 25 -47 24 -17 25 -17 19 -1 -6 15 -3 17 12
13 22 -5 49 17 32 27 -5 4 -11 -1 -13 -9 -2 -11 -11 -8 -35 15 -18 17 -34 30
-36 30 -2 0 -4 -13 -4 -28z"/>
<path d="M5160 3359 c0 -11 5 -17 10 -14 6 4 8 10 5 15 -3 5 3 11 12 13 14 4
13 5 -4 6 -17 1 -23 -5 -23 -20z"/>
<path d="M5231 3364 c0 -11 3 -14 6 -6 3 7 2 16 -1 19 -3 4 -6 -2 -5 -13z"/>
<path d="M5520 3361 c0 -5 7 -15 17 -22 15 -13 15 -12 4 9 -12 23 -21 28 -21
13z"/>
<path d="M4850 3350 c0 -5 5 -10 10 -10 6 0 10 5 10 10 0 6 -4 10 -10 10 -5 0
-10 -4 -10 -10z"/>
<path d="M5030 3351 c0 -6 4 -13 10 -16 6 -3 7 1 4 9 -7 18 -14 21 -14 7z"/>
<path d="M4737 3339 c7 -7 15 -10 18 -7 3 3 -2 9 -12 12 -14 6 -15 5 -6 -5z"/>
<path d="M5263 3333 c15 -3 27 -11 27 -19 0 -14 2 -14 15 0 23 22 19 26 -27
25 -30 -2 -35 -3 -15 -6z"/>
<path d="M4815 3311 c4 -13 2 -21 -5 -21 -6 0 -8 -4 -5 -10 3 -5 15 -10 26
-10 26 0 25 36 -2 51 -19 10 -20 8 -14 -10z"/>
<path d="M5192 3310 c0 -14 2 -19 5 -12 2 6 2 18 0 25 -3 6 -5 1 -5 -13z"/>
<path d="M5690 3308 c0 -19 2 -20 10 -8 13 19 13 30 0 30 -5 0 -10 -10 -10
-22z"/>
<path d="M4884 3299 c-18 -7 -18 -8 1 -9 11 -2 26 -1 34 0 8 1 18 -4 22 -12 7
-10 9 -9 9 3 0 19 -37 29 -66 18z"/>
<path d="M4750 3296 c0 -2 7 -7 16 -10 8 -3 12 -2 9 4 -6 10 -25 14 -25 6z"/>
<path d="M5263 3286 c14 -14 21 -16 30 -7 8 8 8 11 0 11 -6 0 -20 3 -30 7 -17
7 -17 6 0 -11z"/>
<path d="M5417 3293 c12 -2 24 -12 26 -21 3 -12 5 -10 6 6 1 18 -4 22 -26 21
-23 -1 -24 -2 -6 -6z"/>
<path d="M4750 3264 c0 -32 19 -42 78 -38 28 2 52 0 52 -4 0 -4 8 -8 18 -9 9
-1 35 -4 57 -8 32 -6 38 -5 28 5 -7 7 -26 13 -43 12 -16 0 -30 3 -30 8 0 5 -7
7 -15 4 -8 -4 -15 -1 -15 6 0 6 -4 9 -9 5 -14 -8 -104 14 -113 28 -5 8 -8 4
-8 -9z"/>
<path d="M5120 3249 c0 -6 13 -8 32 -5 20 3 36 0 40 -7 5 -8 8 -6 8 6 0 13 -9
17 -40 17 -22 0 -40 -5 -40 -11z"/>
<path d="M5366 3249 c-15 -9 -16 -13 -5 -20 21 -13 29 -11 30 9 0 14 2 14 9
-3 8 -19 9 -19 9 3 1 24 -13 28 -43 11z"/>
<path d="M5649 3251 c12 -8 51 -4 51 5 0 2 -15 4 -32 4 -23 0 -29 -3 -19 -9z"/>
<path d="M4336 3233 c-6 -14 -5 -15 5 -6 7 7 10 15 7 18 -3 3 -9 -2 -12 -12z"/>
<path d="M5508 3218 c-40 -14 -34 -24 11 -20 35 4 40 1 44 -20 3 -17 5 -15 6
11 1 25 -2 32 -13 28 -8 -3 -16 -2 -18 2 -2 4 -15 4 -30 -1z"/>
<path d="M5040 3210 c-13 -8 -12 -10 3 -10 9 0 17 5 17 10 0 12 -1 12 -20 0z"/>
<path d="M5591 3187 c0 -17 3 -27 5 -20 3 7 12 9 20 6 21 -8 17 10 -6 30 -19
16 -20 16 -19 -16z"/>
<path d="M5637 3195 c3 -8 9 -12 14 -9 12 7 11 11 -5 17 -10 4 -13 1 -9 -8z"/>
<path d="M4994 3176 c23 -18 74 -21 96 -5 11 8 4 9 -29 5 -25 -2 -54 0 -65 5
-21 10 -21 10 -2 -5z"/>
<path d="M4575 3170 c-3 -5 0 -10 7 -10 8 0 20 -9 28 -20 8 -11 24 -20 35 -19
19 0 18 1 -2 9 -13 5 -23 16 -23 24 0 7 -7 17 -16 20 -21 8 -22 8 -29 -4z"/>
<path d="M4690 3140 c0 -11 4 -20 9 -20 5 0 7 9 4 20 -3 11 -7 20 -9 20 -2 0
-4 -9 -4 -20z"/>
<path d="M4755 3014 c3 -33 8 -36 49 -39 31 -2 34 0 25 17 -5 10 -7 24 -3 31
5 8 2 7 -9 -2 -14 -11 -20 -11 -41 2 -23 16 -24 15 -21 -9z"/>
<path d="M4101 3003 c0 -7 -10 -13 -21 -13 -35 0 -22 -15 24 -29 25 -7 47 -20
49 -29 3 -12 5 -11 6 5 0 12 7 24 14 26 6 3 -5 6 -25 6 -30 1 -37 5 -41 24 -2
12 -5 16 -6 10z"/>
<path d="M4250 3001 c0 -5 5 -13 10 -16 6 -3 10 -2 10 4 0 5 -4 13 -10 16 -5
3 -10 2 -10 -4z"/>
<path d="M4295 3000 c3 -5 1 -10 -4 -10 -6 0 -11 -5 -11 -11 0 -8 5 -8 15 1
17 14 20 30 4 30 -5 0 -7 -4 -4 -10z"/>
<path d="M4020 2975 c0 -8 4 -15 10 -15 5 0 7 7 4 15 -4 8 -8 15 -10 15 -2 0
-4 -7 -4 -15z"/>
<path d="M4350 2980 c0 -5 5 -10 11 -10 5 0 7 5 4 10 -3 6 -8 10 -11 10 -2 0
-4 -4 -4 -10z"/>
<path d="M4520 2970 c0 -5 5 -10 11 -10 5 0 7 5 4 10 -3 6 -8 10 -11 10 -2 0
-4 -4 -4 -10z"/>
<path d="M4590 2966 c19 -7 39 -10 44 -8 14 8 -18 22 -49 21 l-30 0 35 -13z"/>
<path d="M4695 2970 c-30 -5 -34 -8 -15 -10 14 -1 35 -1 48 0 12 1 22 -3 22
-9 0 -11 -20 -15 -49 -12 -7 2 -10 -2 -7 -7 3 -5 17 -9 31 -9 26 0 51 29 40
47 -7 11 -10 11 -70 0z"/>
<path d="M4850 2951 c0 -5 -9 -13 -21 -16 -14 -5 -19 -13 -16 -26 3 -11 0 -19
-6 -19 -7 0 -6 -4 3 -9 8 -6 18 -7 24 -4 6 4 7 -1 2 -13 -4 -10 -4 -15 0 -11
4 4 13 -1 20 -11 7 -9 15 -14 19 -11 3 4 -1 14 -10 22 -21 21 -19 30 5 22 15
-5 18 -3 14 8 -3 8 -11 14 -17 14 -30 -1 -47 4 -47 13 0 6 8 10 18 10 11 0 18
8 19 20 1 11 0 20 -3 20 -2 0 -4 -4 -4 -9z"/>
<path d="M4600 2930 c0 -5 5 -10 10 -10 6 0 10 5 10 10 0 6 -4 10 -10 10 -5 0
-10 -4 -10 -10z"/>
<path d="M4630 2930 c0 -5 12 -10 28 -9 24 0 25 1 7 9 -27 12 -35 12 -35 0z"/>
<path d="M4520 2884 c0 -17 7 -38 17 -45 15 -13 15 -12 4 9 -6 12 -10 26 -7
30 3 4 1 14 -5 22 -6 11 -9 7 -9 -16z"/>
<path d="M3660 2863 c0 -14 4 -22 10 -18 6 4 8 10 5 15 -3 5 3 10 12 12 15 3
14 5 -4 10 -19 5 -23 2 -23 -19z"/>
<path d="M3850 2871 c0 -25 6 -27 13 -6 4 8 2 17 -3 20 -6 4 -10 -3 -10 -14z"/>
<path d="M4660 2879 c0 -5 9 -9 20 -9 11 0 20 2 20 4 0 2 -9 6 -20 9 -11 3
-20 1 -20 -4z"/>
<path d="M3730 2861 c0 -11 4 -22 9 -25 4 -3 6 6 3 19 -5 30 -12 33 -12 6z"/>
<path d="M3901 2864 c0 -11 3 -14 6 -6 3 7 2 16 -1 19 -3 4 -6 -2 -5 -13z"/>
<path d="M4234 2855 c1 -14 9 -21 27 -23 16 -2 29 -11 32 -21 3 -14 12 -17 36
-13 l31 4 -21 19 c-13 11 -37 19 -60 19 -28 0 -39 5 -42 18 -3 13 -4 12 -3 -3z"/>
<path d="M4357 2874 c-4 -4 -7 -14 -7 -23 0 -11 3 -12 11 -4 6 6 10 16 7 23
-2 6 -7 8 -11 4z"/>
<path d="M4578 2873 c6 -2 18 -2 25 0 6 3 1 5 -13 5 -14 0 -19 -2 -12 -5z"/>
<path d="M4160 2854 c0 -8 5 -12 10 -9 6 4 8 11 5 16 -9 14 -15 11 -15 -7z"/>
<path d="M4020 2856 c0 -2 7 -9 15 -16 13 -11 14 -10 9 4 -5 14 -24 23 -24 12z"/>
<path d="M4660 2849 c0 -5 5 -7 10 -4 6 3 10 8 10 11 0 2 -4 4 -10 4 -5 0 -10
-5 -10 -11z"/>
<path d="M3785 2826 c31 -14 50 -11 40 5 -4 5 -21 9 -38 9 l-32 -1 30 -13z"/>
<path d="M3691 2814 c0 -11 3 -14 6 -6 3 7 2 16 -1 19 -3 4 -6 -2 -5 -13z"/>
<path d="M4186 2822 c-2 -4 -1 -14 5 -22 7 -12 9 -10 9 8 0 23 -5 28 -14 14z"/>
<path d="M4692 2810 c0 -14 2 -19 5 -12 2 6 2 18 0 25 -3 6 -5 1 -5 -13z"/>
<path d="M3888 2799 c-8 -6 -2 -9 20 -9 23 0 32 -5 32 -16 0 -11 -6 -15 -20
-11 -15 4 -20 0 -21 -16 -1 -19 -2 -19 -6 -3 -4 14 -11 17 -36 12 -36 -7 -41
-11 -32 -25 10 -18 85 -14 85 4 0 8 7 15 16 15 11 0 13 -6 9 -20 -7 -22 10
-60 28 -60 8 0 8 3 -2 9 -17 11 -4 34 15 27 8 -3 14 -1 14 4 0 6 -9 10 -20 10
-17 0 -20 7 -20 39 0 33 -4 39 -24 43 -14 3 -31 1 -38 -3z"/>
<path d="M4250 2796 c0 -2 7 -6 15 -10 8 -3 15 -1 15 4 0 6 -7 10 -15 10 -8 0
-15 -2 -15 -4z"/>
<path d="M3825 2780 c-3 -5 1 -10 9 -10 9 0 16 5 16 10 0 6 -4 10 -9 10 -6 0
-13 -4 -16 -10z"/>
<path d="M5006 2775 c10 -8 26 -14 34 -14 9 0 4 6 -10 14 -33 19 -49 19 -24 0z"/>
<path d="M4072 2764 c-11 -12 -8 -14 14 -14 15 0 36 -7 46 -17 15 -13 18 -13
18 -2 0 8 9 15 21 16 17 2 20 -2 16 -18 -5 -20 -5 -20 14 -3 20 18 26 29 10
20 -5 -3 -12 1 -15 9 -4 12 -17 15 -55 12 -28 -2 -52 -1 -53 3 -2 5 -9 2 -16
-6z"/>
<path d="M5062 2758 c6 -18 28 -21 28 -4 0 9 -7 16 -16 16 -9 0 -14 -5 -12
-12z"/>
<path d="M3640 2756 c0 -2 7 -7 16 -10 8 -3 12 -2 9 4 -6 10 -25 14 -25 6z"/>
<path d="M4004 2745 c11 -8 29 -14 40 -14 19 2 19 2 -2 6 -12 2 -20 9 -17 14
4 5 -4 9 -17 9 -22 -1 -22 -1 -4 -15z"/>
<path d="M4568 2753 c6 -2 18 -2 25 0 6 3 1 5 -13 5 -14 0 -19 -2 -12 -5z"/>
<path d="M4615 2750 c4 -6 22 -9 40 -6 29 5 34 3 38 -17 4 -19 4 -18 6 6 1 26
-1 27 -45 27 -29 0 -43 -4 -39 -10z"/>
<path d="M5423 2753 c24 -6 17 -25 -16 -41 -15 -7 -27 -18 -26 -25 0 -9 2 -9
6 1 5 13 24 17 22 5 -4 -22 3 -25 17 -7 15 18 15 18 9 -3 -5 -19 -2 -23 17
-23 14 0 30 -11 43 -30 22 -33 35 -38 35 -13 0 9 -3 14 -6 10 -6 -6 -34 16
-34 27 0 3 23 6 50 6 28 0 50 5 50 10 0 6 -21 10 -47 9 -78 -1 -93 1 -93 10 0
5 10 12 23 14 l22 4 -22 8 c-13 4 -23 16 -23 26 0 13 -7 19 -22 18 -18 -1 -19
-2 -5 -6z"/>
<path d="M5025 2726 c2 -24 24 -34 36 -15 6 11 11 11 21 1 6 -6 19 -12 28 -12
8 0 2 7 -13 15 -15 8 -35 11 -44 8 -12 -5 -15 -2 -11 9 4 8 1 15 -6 15 -7 0
-12 -9 -11 -21z"/>
<path d="M4070 2730 c0 -5 10 -10 23 -10 18 0 19 2 7 10 -19 13 -30 13 -30 0z"/>
<path d="M4030 2715 c0 -2 9 -9 20 -15 16 -9 18 -8 14 5 -5 13 -34 22 -34 10z"/>
<path d="M4716 2675 c4 -8 8 -15 10 -15 2 0 4 7 4 15 0 8 -4 15 -10 15 -5 0
-7 -7 -4 -15z"/>
<path d="M5690 2640 c0 -11 4 -20 9 -20 5 0 7 9 4 20 -3 11 -7 20 -9 20 -2 0
-4 -9 -4 -20z"/>
<path d="M3780 2635 c0 -11 -6 -15 -18 -11 -27 9 -27 -33 1 -44 l22 -9 -22 0
c-22 -1 -34 -21 -13 -21 7 0 7 -6 1 -19 -6 -10 -7 -21 -4 -25 3 -3 1 -6 -6 -6
-9 0 -8 -5 3 -15 10 -11 32 -15 71 -14 50 2 55 4 53 23 -2 16 2 20 20 19 13
-2 22 3 22 10 0 22 -11 27 -27 12 -20 -21 -30 -19 -58 10 -40 40 -33 47 39 40
76 -8 113 0 95 21 -6 7 -9 21 -5 29 3 8 1 15 -4 15 -11 0 -14 -13 -10 -45 2
-16 0 -17 -14 -6 -11 10 -16 10 -16 2 0 -7 -5 -9 -10 -6 -6 4 -9 14 -8 23 2
12 -6 17 -32 18 -19 1 -45 5 -57 9 -18 6 -23 4 -23 -10z m45 -25 c3 -5 -1 -10
-9 -10 -9 0 -16 5 -16 10 0 6 4 10 9 10 6 0 13 -4 16 -10z"/>
<path d="M3980 2639 c0 -6 9 -13 19 -16 11 -3 22 -12 24 -22 4 -12 5 -10 6 5
1 13 -8 25 -24 32 -17 8 -25 8 -25 1z"/>
<path d="M5060 2626 c0 -13 7 -26 15 -29 19 -8 25 4 18 31 -7 30 -33 28 -33
-2z"/>
<path d="M5560 2628 c0 -24 1 -24 51 -14 52 11 49 16 -18 30 -30 7 -33 5 -33
-16z"/>
<path d="M4060 2527 l0 -53 46 -13 c31 -9 44 -18 40 -27 -3 -8 -1 -14 4 -14 6
0 10 9 10 19 0 11 6 22 13 24 6 3 -3 6 -20 6 -30 1 -33 4 -33 32 0 21 -9 40
-26 55 -14 13 -27 24 -30 24 -2 0 -4 -24 -4 -53z"/>
<path d="M5021 2564 c0 -11 3 -14 6 -6 3 7 2 16 -1 19 -3 4 -6 -2 -5 -13z"/>
<path d="M3918 2556 c4 -6 7 -14 7 -18 0 -17 13 -16 30 2 10 11 14 20 9 21 -5
0 -19 2 -31 3 -14 2 -19 -1 -15 -8z"/>
<path d="M3850 2556 c0 -2 7 -6 15 -10 8 -3 15 -1 15 4 0 6 -7 10 -15 10 -8 0
-15 -2 -15 -4z"/>
<path d="M4850 2556 c0 -2 7 -7 16 -10 8 -3 12 -2 9 4 -6 10 -25 14 -25 6z"/>
<path d="M4890 2531 c0 -12 5 -21 10 -21 6 0 10 6 10 14 0 8 -4 18 -10 21 -5
3 -10 -3 -10 -14z"/>
<path d="M4151 2535 c1 -19 18 -51 18 -35 0 8 -4 22 -9 30 -5 8 -9 11 -9 5z"/>
<path d="M3964 2513 c13 -13 20 -14 23 -6 7 20 33 2 33 -23 0 -13 4 -24 8 -24
4 0 7 12 6 27 -1 28 -20 41 -64 42 -23 1 -24 0 -6 -16z"/>
<path d="M5020 2496 c0 -31 6 -34 13 -6 3 11 1 23 -4 26 -5 3 -9 -6 -9 -20z"/>
<path d="M3663 2490 c-23 -9 -23 -12 -22 -182 1 -95 5 -186 9 -203 4 -16 8
-22 9 -12 0 9 8 17 16 17 24 0 37 42 17 58 -21 16 -32 15 -32 -4 0 -8 5 -12
10 -9 6 3 10 -1 10 -11 0 -13 -3 -14 -15 -4 -9 8 -15 30 -15 59 0 39 3 47 19
48 13 1 21 -6 24 -20 4 -18 5 -17 6 6 1 23 -3 27 -24 27 -28 0 -31 5 -12 24
10 12 15 12 30 -1 14 -13 17 -14 18 -2 0 8 2 22 4 32 2 10 -3 17 -11 17 -9 0
-13 4 -9 9 3 6 -3 14 -12 20 -17 10 -17 10 2 11 l20 1 -20 8 c-14 6 -22 4 -27
-8 -5 -11 -7 -8 -7 11 -1 29 18 78 29 78 4 0 10 9 13 20 6 22 3 23 -30 10z
m17 -150 c0 -5 -5 -10 -11 -10 -5 0 -7 5 -4 10 3 6 8 10 11 10 2 0 4 -4 4 -10z"/>
<path d="M3902 2472 c1 -18 6 -32 10 -32 5 0 5 12 2 28 -10 39 -15 41 -12 4z"/>
<path d="M4897 2487 c-8 -22 30 -44 47 -27 8 8 7 10 -6 5 -13 -5 -20 -1 -26
16 -7 19 -10 20 -15 6z"/>
<path d="M3730 2438 c0 -12 3 -17 8 -12 4 5 11 12 15 15 5 3 2 9 -7 12 -12 5
-16 0 -16 -15z"/>
<path d="M3849 2458 c-4 -22 -2 -118 4 -118 4 0 7 -8 8 -17 0 -11 3 -13 6 -5
2 6 10 9 16 5 9 -5 9 -3 0 8 -13 16 -13 15 -13 79 0 28 -4 50 -10 50 -5 0 -10
-1 -11 -2z"/>
<path d="M4170 2441 c0 -5 5 -13 10 -16 6 -3 10 -2 10 4 0 5 -4 13 -10 16 -5
3 -10 2 -10 -4z"/>
<path d="M4018 2392 c-2 -18 -1 -35 4 -40 5 -5 2 -14 -7 -22 -8 -7 -15 -18
-15 -24 0 -6 8 -2 16 9 11 14 18 16 21 8 11 -29 83 -11 83 20 0 11 -3 17 -7
13 -5 -4 -8 -13 -8 -19 0 -26 -40 -18 -57 11 -10 16 -15 32 -12 35 3 3 2 13
-4 23 -8 14 -10 12 -14 -14z"/>
<path d="M4178 2396 c-10 -8 -18 -26 -18 -42 0 -22 3 -25 9 -14 6 8 7 18 5 22
-3 4 0 8 5 8 12 0 13 -7 13 -55 0 -23 1 -25 5 -7 2 12 9 22 14 22 10 0 5 40
-8 64 -7 12 -11 12 -25 2z"/>
<path d="M4063 2383 c-7 -3 -13 -12 -13 -21 0 -11 3 -13 8 -6 4 7 18 14 32 16
22 3 23 4 5 9 -11 3 -26 4 -32 2z"/>
<path d="M3927 2329 c7 -7 15 -10 18 -7 3 3 -2 9 -12 12 -14 6 -15 5 -6 -5z"/>
<path d="M4155 2310 c-3 -5 1 -10 10 -10 9 0 13 5 10 10 -3 6 -8 10 -10 10 -2
0 -7 -4 -10 -10z"/>
<path d="M3995 2281 c-3 -6 -3 -11 2 -12 4 0 -1 -4 -12 -9 -18 -8 -18 -9 -2
-9 10 -1 20 6 24 14 7 19 -2 31 -12 16z"/>
<path d="M4068 2253 c6 -2 18 -2 25 0 6 3 1 5 -13 5 -14 0 -19 -2 -12 -5z"/>
<path d="M4030 2210 c0 -5 7 -10 15 -10 8 0 15 5 15 10 0 6 -7 10 -15 10 -8 0
-15 -4 -15 -10z"/>
<path d="M3800 2100 c0 -11 5 -20 10 -20 6 0 10 9 10 20 0 11 -4 20 -10 20 -5
0 -10 -9 -10 -20z"/>
<path d="M3920 2100 c-8 -5 -23 -11 -32 -14 -11 -3 -17 -14 -17 -28 l2 -23 4
23 c5 26 18 28 39 7 22 -22 34 -18 34 9 0 29 -9 37 -30 26z"/>
<path d="M3838 2072 c-4 -12 -2 -24 2 -27 13 -8 18 8 10 29 -6 19 -7 19 -12
-2z"/>
<path d="M3981 2064 c0 -11 3 -14 6 -6 3 7 2 16 -1 19 -3 4 -6 -2 -5 -13z"/>
<path d="M4021 2064 c0 -11 3 -14 6 -6 3 7 2 16 -1 19 -3 4 -6 -2 -5 -13z"/>
<path d="M3646 2056 c3 -8 13 -12 27 -8 20 5 20 6 1 13 -29 11 -34 10 -28 -5z"/>
<path d="M3890 2031 c0 -12 5 -21 10 -21 6 0 10 6 10 14 0 8 -4 18 -10 21 -5
3 -10 -3 -10 -14z"/>
<path d="M4350 1930 c0 -16 5 -30 10 -30 6 0 10 14 10 30 0 17 -4 30 -10 30
-5 0 -10 -13 -10 -30z"/>
<path d="M4231 1934 c0 -11 3 -14 6 -6 3 7 2 16 -1 19 -3 4 -6 -2 -5 -13z"/>
<path d="M4520 1892 c0 -17 4 -33 9 -36 4 -3 7 9 5 26 -5 42 -14 49 -14 10z"/>
<path d="M4934 1718 c-3 -5 -17 -7 -31 -3 -16 4 -22 2 -18 -5 3 -5 1 -10 -4
-10 -6 0 -11 -6 -11 -14 0 -17 49 -28 70 -15 12 7 12 8 -4 9 -11 0 -16 3 -12
8 8 7 13 8 41 11 8 0 15 5 15 10 0 13 -39 21 -46 9z"/>
<path d="M4831 1701 c-7 -5 -22 -6 -32 -4 -11 3 -26 0 -34 -7 -13 -10 -13 -14
1 -27 20 -20 88 -33 106 -21 10 8 9 9 -4 5 -13 -5 -16 0 -16 24 1 35 -3 41
-21 30z"/>
<path d="M4690 1640 c0 -11 4 -20 9 -20 5 0 7 9 4 20 -3 11 -7 20 -9 20 -2 0
-4 -9 -4 -20z"/>
<path d="M5095 1590 c3 -5 8 -10 11 -10 2 0 4 5 4 10 0 6 -5 10 -11 10 -5 0
-7 -4 -4 -10z"/>
<path d="M4960 1543 c0 -18 5 -33 11 -33 6 0 9 -6 6 -13 -4 -10 1 -13 16 -10
17 3 22 12 22 34 1 22 -3 29 -15 26 -8 -1 -20 4 -27 13 -10 13 -12 10 -13 -17z"/>
<path d="M4257 1544 c-4 -4 -7 -22 -7 -41 0 -26 4 -33 20 -33 12 0 20 -7 20
-17 0 -11 3 -14 8 -7 4 5 17 10 30 10 19 0 22 -6 22 -38 0 -21 5 -38 11 -38
15 0 9 118 -6 124 -8 3 -11 -3 -9 -17 2 -12 2 -16 -2 -9 -3 6 -13 12 -22 12
-13 0 -14 2 -3 9 9 6 10 11 2 15 -6 4 -9 12 -6 17 4 5 0 9 -9 9 -8 0 -21 2
-28 5 -8 3 -17 2 -21 -1z"/>
<path d="M4390 1530 c0 -5 5 -10 10 -10 6 0 10 5 10 10 0 6 -4 10 -10 10 -5 0
-10 -4 -10 -10z"/>
<path d="M4560 1505 c0 -14 2 -25 4 -25 2 0 6 11 8 25 3 14 1 25 -3 25 -5 0
-9 -11 -9 -25z"/>
<path d="M4151 1443 c1 -22 2 -23 6 -8 3 11 10 23 17 27 7 5 5 8 -6 8 -13 0
-18 -7 -17 -27z"/>
<path d="M4232 1440 c0 -14 2 -19 5 -12 2 6 2 18 0 25 -3 6 -5 1 -5 -13z"/>
<path d="M4022 1395 c0 -16 2 -22 5 -12 2 9 2 23 0 30 -3 6 -5 -1 -5 -18z"/>
<path d="M4570 1401 c0 -8 -7 -11 -17 -6 -15 5 -16 4 -5 -6 9 -10 15 -10 24
-1 6 6 9 15 5 19 -4 3 -7 1 -7 -6z"/>
<path d="M4160 1367 c0 -13 3 -17 8 -11 4 6 14 13 22 16 10 3 8 6 -8 10 -18 5
-22 2 -22 -15z"/>
<path d="M5225 1380 c-3 -5 -2 -10 4 -10 5 0 13 5 16 10 3 6 2 10 -4 10 -5 0
-13 -4 -16 -10z"/>
<path d="M4480 1336 c6 -17 16 -21 59 -22 28 -1 51 3 51 7 0 5 -13 9 -30 9
-30 0 -41 14 -17 23 6 3 -7 5 -30 5 -37 -1 -40 -3 -33 -22z"/>
<path d="M5191 1339 c-12 -12 -20 -24 -17 -27 4 -3 16 5 27 17 27 29 19 37
-10 10z"/>
<path d="M4600 1319 c0 -5 5 -7 10 -4 6 3 10 8 10 11 0 2 -4 4 -10 4 -5 0 -10
-5 -10 -11z"/>
<path d="M5040 1320 c-36 -8 -17 -14 29 -10 14 1 21 -2 17 -9 -4 -6 -3 -11 1
-11 15 0 63 25 63 33 0 9 -62 7 -110 -3z"/>
<path d="M4550 1270 c-13 -8 -12 -10 3 -10 9 0 17 5 17 10 0 12 -1 12 -20 0z"/>
<path d="M5045 1270 c-3 -5 -1 -10 4 -10 6 0 11 5 11 10 0 6 -2 10 -4 10 -3 0
-8 -4 -11 -10z"/>
<path d="M4570 1240 c-13 -8 -12 -10 3 -10 9 0 17 5 17 10 0 12 -1 12 -20 0z"/>
<path d="M4600 1225 c0 -8 2 -15 4 -15 2 0 6 7 10 15 3 8 1 15 -4 15 -6 0 -10
-7 -10 -15z"/>
<path d="M1920 4020 c0 -11 7 -20 15 -20 17 0 18 2 9 24 -9 23 -24 20 -24 -4z"/>
<path d="M3237 3523 c-13 -12 -7 -23 13 -23 11 0 20 7 20 15 0 15 -21 21 -33
8z"/>
<path d="M2508 3523 c7 -3 16 -2 19 1 4 3 -2 6 -13 5 -11 0 -14 -3 -6 -6z"/>
<path d="M1813 2321 c-21 -6 -21 -6 8 -38 16 -18 30 -33 32 -33 6 0 -5 70 -12
74 -3 1 -16 0 -28 -3z"/>
<path d="M2948 2404 c-30 -16 -33 -25 -18 -55 13 -24 29 -24 46 -1 14 18 19
72 7 72 -5 -1 -20 -8 -35 -16z"/>
<path d="M1775 1843 l-28 -36 24 6 c13 4 30 7 37 7 13 0 16 28 4 47 -5 8 -17
1 -37 -24z"/>
<path d="M3060 1363 c-32 -12 -50 -35 -39 -50 25 -29 69 -8 69 34 0 24 -4 26
-30 16z"/>
<path d="M2930 751 l0 -49 30 11 c35 13 37 22 10 39 -11 7 -20 18 -20 25 0 6
-4 15 -10 18 -6 4 -10 -13 -10 -44z"/>
</g>
</svg>
